<?xml version="1.0" encoding="UTF-8"?>
<svg width="1200pt" height="1200pt" version="1.1" viewBox="0 0 1200 1200" xmlns="http://www.w3.org/2000/svg">
 <path d="m805.94 974.21h-286.92c6.0469 12.672 9.4688 26.82 9.4688 41.797 0 26.676-10.871 50.867-28.402 68.402l-0.10938 0.10938c-17.531 17.531-41.723 28.402-68.438 28.402-26.676 0-50.867-10.871-68.402-28.402l-0.10938-0.10938c-17.531-17.531-28.402-41.723-28.402-68.402 0-14.977 3.4219-29.125 9.5039-41.797h-66.203c-30.133 0-57.527-12.312-77.363-32.148-19.836-19.836-32.148-47.195-32.148-77.363 0-30.133 12.312-57.527 32.148-77.328 19.836-19.836 47.195-32.148 77.363-32.148h36.719l-32.004-119.52c-0.32422-1.0078-0.61328-2.0156-0.82812-3.0586l-12.383-46.262-37.297-139.21c-0.32422-1.0078-0.61328-2.0156-0.82812-3.0586l-40.895-152.68c-0.32422-0.97266-0.57422-1.9453-0.79297-2.9531l-39.203-146.27h-110.84c-15.227 0-27.578-12.348-27.578-27.539 0-15.227 12.348-27.578 27.578-27.578h131.94v0.035156c12.168 0 23.328 8.1367 26.605 20.414l39.562 147.67h922.76v0.035156c2.3398 0 4.7148 0.28906 7.1289 0.9375 14.688 3.9258 23.398 19.008 19.477 33.695l-41.328 154.26c-0.21484 1.0078-0.46875 2.0156-0.79297 2.9531l-49.715 185.55c-0.21484 1.043-0.50391 2.0508-0.82813 3.0586l-40.934 152.71c-2.5938 12.527-13.68 21.926-27 21.926h-748.55c-14.941 0-28.512 6.1211-38.375 15.984s-15.984 23.473-15.984 38.375c0 14.941 6.1211 28.512 15.984 38.375s23.473 15.984 38.375 15.984h615.43c26.676 0 50.867 10.871 68.438 28.402l0.10938 0.10937c17.531 17.531 28.402 41.723 28.402 68.438 0 26.676-10.836 50.867-28.402 68.402l-0.10938 0.10938c-17.531 17.531-41.723 28.402-68.438 28.402-26.676 0-50.867-10.871-68.438-28.402l-0.10937-0.10938c-17.531-17.531-28.402-41.723-28.402-68.402 0-14.977 3.3828-29.125 9.5039-41.797zm-476-374.73h197.57l-12.312-133.42h-221.01l17.102 63.793zm252.72 0h211.72l12.312-133.42h-236.34l12.348 133.42zm266.87 0h197.61l35.75-133.42h-221.01l-12.312 133.42zm182.81 55.117h-187.89l-9.2891 100.59h170.25zm-243.04 0h-201.53l9.2891 100.59h182.95zm-256.68 0h-187.92l26.965 100.59h170.25zm-253.19-243.69h230.69l-9.2891-100.59h-248.33l26.965 100.59zm285.84 0h246.53l9.2891-100.59h-265.14l9.2891 100.59zm301.68 0h230.69l26.965-100.59h-248.37zm56.016 575.43c-7.5586-7.5234-18-12.168-29.594-12.168s-22.066 4.6445-29.594 12.168c-7.5234 7.5586-12.203 18.035-12.203 29.629s4.6797 22.066 12.203 29.594c7.5586 7.5234 18 12.203 29.594 12.203s22.066-4.6797 29.594-12.203c7.5234-7.5586 12.203-18.035 12.203-29.594 0-11.594-4.6797-22.066-12.203-29.629zm-461.85 0.070312c-7.5586-7.5586-18-12.238-29.555-12.238-11.594 0-22.066 4.6445-29.594 12.168-7.5234 7.5586-12.203 18.035-12.203 29.629s4.6797 22.066 12.203 29.594c7.5586 7.5234 18 12.203 29.594 12.203s22.066-4.6797 29.629-12.203c7.5234-7.5586 12.168-18.035 12.168-29.594 0-11.555-4.6797-21.996-12.238-29.555z"/>
</svg>
