<svg xmlns="http://www.w3.org/2000/svg" xmlns:xlink="http://www.w3.org/1999/xlink" width="1506" zoomAndPan="magnify" viewBox="0 0 1129.5 747.749978" height="997" preserveAspectRatio="xMidYMid meet" version="1.0"><defs><clipPath id="b15d1dd589"><path d="M 0 0.0390625 L 1129 0.0390625 L 1129 747.460938 L 0 747.460938 Z M 0 0.0390625 " clip-rule="nonzero"/></clipPath><clipPath id="ea1f0f7859"><path d="M 6 3.429688 L 1123 3.429688 L 1123 744.101562 L 6 744.101562 Z M 6 3.429688 " clip-rule="nonzero"/></clipPath></defs><g clip-path="url(#b15d1dd589)"><path fill="#ffffff" d="M 0 0.0390625 L 1129 0.0390625 L 1129 747.460938 L 0 747.460938 Z M 0 0.0390625 " fill-opacity="1" fill-rule="nonzero"/><path fill="#ffffff" d="M 0 0.0390625 L 1129 0.0390625 L 1129 747.460938 L 0 747.460938 Z M 0 0.0390625 " fill-opacity="1" fill-rule="nonzero"/></g><path fill="#ff3131" d="M 1035.367188 739.417969 C 1081.003906 739.417969 1118.148438 702.292969 1118.148438 656.632812 L 1118.148438 90.839844 C 1118.125 45.179688 1081.003906 8.054688 1035.367188 8.054688 L 394.421875 8.054688 C 393.148438 8.054688 392.109375 7.011719 392.109375 5.742188 L 118.382812 5.742188 C 74.363281 5.742188 38.699219 41.410156 38.699219 85.425781 L 38.699219 662.042969 C 38.699219 706.0625 74.363281 741.730469 118.382812 741.730469 L 1033.03125 741.730469 C 1033.050781 740.457031 1034.09375 739.417969 1035.367188 739.417969 Z M 991.488281 69.953125 C 1027.917969 69.953125 1057.457031 99.488281 1057.457031 135.917969 C 1057.457031 172.351562 1027.941406 201.910156 991.488281 201.910156 C 955.035156 201.910156 925.519531 172.375 925.519531 135.941406 C 925.519531 99.511719 955.058594 69.953125 991.488281 69.953125 Z M 1057.476562 502.003906 L 1057.476562 552.335938 C 1057.476562 558.210938 1052.714844 562.976562 1046.839844 562.976562 L 1032.011719 562.976562 C 1026.136719 562.976562 1021.371094 558.210938 1021.371094 552.335938 L 1021.371094 502.003906 C 1021.371094 496.128906 1026.136719 491.363281 1032.011719 491.363281 L 1046.839844 491.363281 C 1052.714844 491.363281 1057.476562 496.128906 1057.476562 502.003906 Z M 102.492188 67.636719 L 424.003906 67.636719 C 425.277344 67.636719 426.316406 68.679688 426.316406 69.953125 C 426.316406 71.222656 425.277344 72.265625 424.003906 72.265625 L 102.492188 72.265625 C 101.21875 72.265625 100.179688 71.222656 100.179688 69.953125 C 100.179688 68.679688 101.21875 67.636719 102.492188 67.636719 Z M 102.492188 102.054688 L 293.804688 102.054688 C 295.074219 102.054688 296.117188 103.097656 296.117188 104.371094 C 296.117188 105.640625 295.074219 106.683594 293.804688 106.683594 L 102.492188 106.683594 C 101.21875 106.683594 100.179688 105.640625 100.179688 104.371094 C 100.179688 103.097656 101.21875 102.054688 102.492188 102.054688 Z M 137.8125 656.425781 C 137.8125 662.300781 133.046875 667.0625 127.171875 667.0625 L 112.34375 667.0625 C 106.46875 667.0625 101.707031 662.300781 101.707031 656.425781 L 101.707031 614.117188 C 101.707031 608.242188 106.46875 603.476562 112.34375 603.476562 L 127.171875 603.476562 C 133.046875 603.476562 137.8125 608.242188 137.8125 614.117188 Z M 101.683594 552.335938 L 101.683594 502.003906 C 101.683594 496.128906 106.445312 491.363281 112.320312 491.363281 L 127.148438 491.363281 C 133.023438 491.363281 137.789062 496.128906 137.789062 502.003906 L 137.789062 552.335938 C 137.789062 558.210938 133.023438 562.976562 127.148438 562.976562 L 112.320312 562.976562 C 106.445312 563 101.683594 558.210938 101.683594 552.335938 Z M 101.683594 380.152344 L 101.683594 374.371094 L 100.941406 374.371094 C 99.667969 374.371094 98.628906 373.332031 98.628906 372.058594 C 98.628906 370.785156 99.667969 369.746094 100.941406 369.746094 L 101.683594 369.746094 L 101.683594 299.035156 L 100.941406 299.035156 C 99.667969 299.035156 98.628906 297.996094 98.628906 296.722656 C 98.628906 295.449219 99.667969 294.410156 100.941406 294.410156 L 101.683594 294.410156 L 101.683594 288.625 C 101.683594 268.664062 117.875 252.472656 137.835938 252.472656 L 181.273438 252.472656 C 181.273438 251.203125 182.316406 250.160156 183.585938 250.160156 C 184.859375 250.160156 185.898438 251.203125 185.898438 252.472656 L 229.339844 252.472656 C 249.300781 252.472656 265.492188 268.664062 265.492188 288.625 L 265.492188 294.410156 L 266.230469 294.410156 C 267.503906 294.410156 268.546875 295.449219 268.546875 296.722656 C 268.546875 297.996094 267.503906 299.035156 266.230469 299.035156 L 265.492188 299.035156 L 265.492188 369.746094 L 266.230469 369.746094 C 267.503906 369.746094 268.546875 370.785156 268.546875 372.058594 C 268.546875 373.332031 267.503906 374.371094 266.230469 374.371094 L 265.492188 374.371094 L 265.492188 380.152344 C 265.492188 400.117188 249.300781 416.308594 229.339844 416.308594 L 185.878906 416.308594 L 185.878906 416.492188 C 185.878906 417.765625 184.835938 418.804688 183.5625 418.804688 C 182.292969 418.804688 181.25 417.765625 181.25 416.492188 L 181.25 416.308594 L 137.8125 416.308594 C 117.851562 416.308594 101.683594 400.117188 101.683594 380.152344 Z M 189.460938 502.003906 L 189.460938 552.335938 C 189.460938 558.210938 184.699219 562.976562 178.820312 562.976562 L 163.996094 562.976562 C 158.121094 562.976562 153.355469 558.210938 153.355469 552.335938 L 153.355469 502.003906 C 153.355469 496.128906 158.121094 491.363281 163.996094 491.363281 L 178.820312 491.363281 C 184.699219 491.363281 189.460938 496.128906 189.460938 502.003906 Z M 189.460938 656.425781 C 189.460938 662.300781 184.699219 667.0625 178.820312 667.0625 L 163.996094 667.0625 C 158.121094 667.0625 153.355469 662.300781 153.355469 656.425781 L 153.355469 614.117188 C 153.355469 608.242188 158.121094 603.476562 163.996094 603.476562 L 178.820312 603.476562 C 184.699219 603.476562 189.460938 608.242188 189.460938 614.117188 Z M 231.398438 607.664062 L 205.398438 664.960938 C 205.003906 665.816406 204.171875 666.324219 203.292969 666.324219 C 202.96875 666.324219 202.648438 666.253906 202.347656 666.117188 C 201.1875 665.582031 200.65625 664.21875 201.1875 663.0625 L 227.1875 605.769531 C 227.71875 604.613281 229.085938 604.078125 230.242188 604.613281 C 231.398438 605.121094 231.929688 606.507812 231.398438 607.664062 Z M 241.113281 552.335938 C 241.113281 558.210938 236.347656 562.976562 230.472656 562.976562 L 215.644531 562.976562 C 209.769531 562.976562 205.003906 558.210938 205.003906 552.335938 L 205.003906 502.003906 C 205.003906 496.128906 209.769531 491.363281 215.644531 491.363281 L 230.472656 491.363281 C 236.347656 491.363281 241.113281 496.128906 241.113281 502.003906 Z M 278.28125 656.425781 C 278.28125 662.300781 273.519531 667.0625 267.644531 667.0625 L 252.816406 667.0625 C 246.941406 667.0625 242.175781 662.300781 242.175781 656.425781 L 242.175781 614.117188 C 242.175781 608.242188 246.941406 603.476562 252.816406 603.476562 L 267.644531 603.476562 C 273.519531 603.476562 278.28125 608.242188 278.28125 614.117188 Z M 292.761719 552.335938 C 292.761719 558.210938 287.996094 562.976562 282.121094 562.976562 L 267.296875 562.976562 C 261.421875 562.976562 256.65625 558.210938 256.65625 552.335938 L 256.65625 502.003906 C 256.65625 496.128906 261.421875 491.363281 267.296875 491.363281 L 282.121094 491.363281 C 287.996094 491.363281 292.761719 496.128906 292.761719 502.003906 Z M 329.933594 656.425781 C 329.933594 662.300781 325.167969 667.0625 319.292969 667.0625 L 304.464844 667.0625 C 298.589844 667.0625 293.828125 662.300781 293.828125 656.425781 L 293.828125 614.117188 C 293.828125 608.242188 298.589844 603.476562 304.464844 603.476562 L 319.292969 603.476562 C 325.167969 603.476562 329.933594 608.242188 329.933594 614.117188 Z M 392.710938 552.335938 C 392.710938 558.210938 387.945312 562.976562 382.070312 562.976562 L 367.242188 562.976562 C 361.367188 562.976562 356.601562 558.210938 356.601562 552.335938 L 356.601562 502.003906 C 356.601562 496.128906 361.367188 491.363281 367.242188 491.363281 L 382.070312 491.363281 C 387.945312 491.363281 392.710938 496.128906 392.710938 502.003906 Z M 444.359375 552.335938 C 444.359375 558.210938 439.59375 562.976562 433.71875 562.976562 L 418.894531 562.976562 C 413.019531 562.976562 408.253906 558.210938 408.253906 552.335938 L 408.253906 502.003906 C 408.253906 496.128906 413.019531 491.363281 418.894531 491.363281 L 433.71875 491.363281 C 439.59375 491.363281 444.359375 496.128906 444.359375 502.003906 Z M 496.011719 552.335938 C 496.011719 558.210938 491.246094 562.976562 485.371094 562.976562 L 470.542969 562.976562 C 464.667969 562.976562 459.902344 558.210938 459.902344 552.335938 L 459.902344 502.003906 C 459.902344 496.128906 464.667969 491.363281 470.542969 491.363281 L 485.371094 491.363281 C 491.246094 491.363281 496.011719 496.128906 496.011719 502.003906 Z M 547.660156 552.335938 C 547.660156 558.210938 542.894531 562.976562 537.019531 562.976562 L 522.195312 562.976562 C 516.320312 562.976562 511.554688 558.210938 511.554688 552.335938 L 511.554688 502.003906 C 511.554688 496.128906 516.320312 491.363281 522.195312 491.363281 L 537.019531 491.363281 C 542.894531 491.363281 547.660156 496.128906 547.660156 502.003906 Z M 647.605469 552.335938 C 647.605469 558.210938 642.84375 562.976562 636.96875 562.976562 L 622.140625 562.976562 C 616.265625 562.976562 611.5 558.210938 611.5 552.335938 L 611.5 502.003906 C 611.5 496.128906 616.265625 491.363281 622.140625 491.363281 L 636.96875 491.363281 C 642.84375 491.363281 647.605469 496.128906 647.605469 502.003906 Z M 699.257812 552.335938 C 699.257812 558.210938 694.492188 562.976562 688.617188 562.976562 L 673.789062 562.976562 C 667.914062 562.976562 663.152344 558.210938 663.152344 552.335938 L 663.152344 502.003906 C 663.152344 496.128906 667.914062 491.363281 673.789062 491.363281 L 688.617188 491.363281 C 694.492188 491.363281 699.257812 496.128906 699.257812 502.003906 Z M 750.90625 552.335938 C 750.90625 558.210938 746.144531 562.976562 740.265625 562.976562 L 725.441406 562.976562 C 719.566406 562.976562 714.800781 558.210938 714.800781 552.335938 L 714.800781 502.003906 C 714.800781 496.128906 719.566406 491.363281 725.441406 491.363281 L 740.265625 491.363281 C 746.144531 491.363281 750.90625 496.128906 750.90625 502.003906 Z M 802.558594 552.335938 C 802.558594 558.210938 797.792969 562.976562 791.917969 562.976562 L 777.089844 562.976562 C 771.214844 562.976562 766.449219 558.210938 766.449219 552.335938 L 766.449219 502.003906 C 766.449219 496.128906 771.214844 491.363281 777.089844 491.363281 L 791.917969 491.363281 C 797.792969 491.363281 802.558594 496.128906 802.558594 502.003906 Z M 730.042969 201.910156 C 696.042969 201.910156 668.46875 174.339844 668.46875 140.335938 L 668.46875 131.523438 C 668.46875 97.523438 696.042969 69.953125 730.042969 69.953125 L 837.832031 69.953125 C 871.832031 69.953125 899.40625 97.523438 899.40625 131.523438 L 899.40625 140.335938 C 899.40625 174.339844 871.832031 201.910156 837.832031 201.910156 Z M 902.503906 552.335938 C 902.503906 558.210938 897.738281 562.976562 891.863281 562.976562 L 877.039062 562.976562 C 871.164062 562.976562 866.398438 558.210938 866.398438 552.335938 L 866.398438 502.003906 C 866.398438 496.128906 871.164062 491.363281 877.039062 491.363281 L 891.863281 491.363281 C 897.738281 491.363281 902.503906 496.128906 902.503906 502.003906 Z M 954.15625 552.335938 C 954.15625 558.210938 949.390625 562.976562 943.515625 562.976562 L 928.6875 562.976562 C 922.8125 562.976562 918.046875 558.210938 918.046875 552.335938 L 918.046875 502.003906 C 918.046875 496.128906 922.8125 491.363281 928.6875 491.363281 L 943.515625 491.363281 C 949.390625 491.363281 954.15625 496.128906 954.15625 502.003906 Z M 953.785156 357.601562 C 953.320312 358.226562 952.628906 358.574219 951.910156 358.574219 C 951.449219 358.574219 950.960938 358.433594 950.570312 358.132812 C 949.527344 357.394531 949.296875 355.9375 950.039062 354.894531 C 954.339844 348.90625 956.605469 341.851562 956.605469 334.472656 C 956.605469 327.09375 954.339844 320.039062 950.039062 314.046875 C 949.296875 313.007812 949.527344 311.570312 950.570312 310.808594 C 951.609375 310.070312 953.042969 310.300781 953.808594 311.339844 C 958.664062 318.117188 961.253906 326.121094 961.253906 334.472656 C 961.253906 342.820312 958.640625 350.824219 953.785156 357.601562 Z M 968.289062 365.628906 C 974.832031 356.492188 978.304688 345.734375 978.304688 334.496094 C 978.304688 323.253906 974.832031 312.472656 968.289062 303.359375 C 967.546875 302.320312 967.777344 300.886719 968.820312 300.121094 C 969.859375 299.382812 971.292969 299.613281 972.058594 300.65625 C 979.183594 310.578125 982.953125 322.28125 982.953125 334.496094 C 982.953125 346.707031 979.183594 358.410156 972.058594 368.335938 C 971.59375 368.957031 970.902344 369.304688 970.183594 369.304688 C 969.722656 369.304688 969.234375 369.167969 968.84375 368.867188 C 967.777344 368.101562 967.546875 366.667969 968.289062 365.628906 Z M 1005.804688 552.335938 C 1005.804688 558.210938 1001.039062 562.976562 995.164062 562.976562 L 980.339844 562.976562 C 974.464844 562.976562 969.699219 558.210938 969.699219 552.335938 L 969.699219 502.003906 C 969.699219 496.128906 974.464844 491.363281 980.339844 491.363281 L 995.164062 491.363281 C 1001.039062 491.363281 1005.804688 496.128906 1005.804688 502.003906 Z M 991.046875 383.089844 C 990.585938 383.714844 989.890625 384.0625 989.175781 384.0625 C 988.710938 384.0625 988.226562 383.925781 987.832031 383.625 C 986.792969 382.882812 986.5625 381.425781 987.300781 380.386719 C 996.96875 366.921875 1002.082031 351.054688 1002.082031 334.472656 C 1002.082031 317.886719 996.96875 302.019531 987.300781 288.558594 C 986.558594 287.515625 986.792969 286.082031 987.832031 285.320312 C 988.875 284.578125 990.308594 284.808594 991.070312 285.851562 C 1001.292969 300.097656 1006.707031 316.914062 1006.707031 334.449219 C 1006.707031 351.980469 1001.269531 368.84375 991.046875 383.089844 Z M 1008.003906 393.984375 C 1020.515625 376.546875 1027.15625 355.984375 1027.15625 334.496094 C 1027.15625 313.007812 1020.539062 292.441406 1008.003906 275.003906 C 1007.261719 273.960938 1007.492188 272.527344 1008.535156 271.765625 C 1009.574219 271.023438 1011.007812 271.253906 1011.773438 272.296875 C 1024.863281 290.523438 1031.78125 312.035156 1031.78125 334.496094 C 1031.78125 356.953125 1024.863281 378.464844 1011.773438 396.691406 C 1011.308594 397.316406 1010.617188 397.664062 1009.898438 397.664062 C 1009.4375 397.664062 1008.949219 397.523438 1008.558594 397.222656 C 1007.492188 396.460938 1007.261719 395.027344 1008.003906 393.984375 Z M 325.308594 614.117188 L 325.308594 656.425781 C 325.308594 659.753906 322.601562 662.4375 319.292969 662.4375 L 304.464844 662.4375 C 301.136719 662.4375 298.453125 659.730469 298.453125 656.425781 L 298.453125 614.117188 C 298.453125 610.789062 301.160156 608.105469 304.464844 608.105469 L 319.292969 608.105469 C 322.601562 608.105469 325.308594 610.789062 325.308594 614.117188 Z M 991.488281 197.285156 C 1025.328125 197.285156 1052.828125 169.757812 1052.828125 135.941406 C 1052.828125 102.101562 1025.304688 74.601562 991.488281 74.601562 C 957.671875 74.601562 930.144531 102.125 930.144531 135.941406 C 930.144531 169.757812 957.671875 197.285156 991.488281 197.285156 Z M 991.488281 96.992188 C 1013 96.992188 1030.414062 114.429688 1030.414062 135.917969 C 1030.414062 157.429688 1012.976562 174.847656 991.488281 174.847656 C 969.976562 174.847656 952.558594 157.40625 952.558594 135.917969 C 952.558594 114.429688 970 96.992188 991.488281 96.992188 Z M 133.1875 614.117188 L 133.1875 656.425781 C 133.1875 659.753906 130.480469 662.4375 127.171875 662.4375 L 112.34375 662.4375 C 109.015625 662.4375 106.332031 659.730469 106.332031 656.425781 L 106.332031 614.117188 C 106.332031 610.789062 109.039062 608.105469 112.34375 608.105469 L 127.171875 608.105469 C 130.480469 608.105469 133.1875 610.789062 133.1875 614.117188 Z M 184.835938 614.117188 L 184.835938 656.425781 C 184.835938 659.753906 182.128906 662.4375 178.820312 662.4375 L 163.996094 662.4375 C 160.664062 662.4375 157.980469 659.730469 157.980469 656.425781 L 157.980469 614.117188 C 157.980469 610.789062 160.6875 608.105469 163.996094 608.105469 L 178.820312 608.105469 C 182.128906 608.105469 184.835938 610.789062 184.835938 614.117188 Z M 273.65625 614.117188 L 273.65625 656.425781 C 273.65625 659.753906 270.949219 662.4375 267.644531 662.4375 L 252.816406 662.4375 C 249.484375 662.4375 246.800781 659.730469 246.800781 656.425781 L 246.800781 614.117188 C 246.800781 610.789062 249.507812 608.105469 252.816406 608.105469 L 267.644531 608.105469 C 270.949219 608.105469 273.65625 610.789062 273.65625 614.117188 Z M 273.65625 614.117188 " fill-opacity="1" fill-rule="nonzero"/><path fill="#f5ba01" d="M 149.144531 369.746094 L 101.683594 369.746094 L 101.683594 299.035156 L 149.167969 299.035156 L 149.167969 369.746094 Z M 181.4375 400.625 L 185.714844 400.625 C 200.957031 400.625 213.355469 388.226562 213.355469 372.984375 L 213.355469 295.84375 C 213.355469 280.601562 200.957031 268.203125 185.714844 268.203125 L 181.4375 268.203125 C 166.191406 268.203125 153.796875 280.601562 153.796875 295.84375 L 153.796875 372.984375 C 153.773438 388.226562 166.191406 400.625 181.4375 400.625 Z M 181.25 405.25 C 163.996094 405.15625 149.957031 391.464844 149.214844 374.394531 L 101.683594 374.394531 L 101.683594 380.175781 C 101.683594 400.140625 117.875 416.328125 137.835938 416.328125 L 181.273438 416.328125 L 181.273438 405.25 Z M 185.878906 405.25 L 185.878906 416.308594 L 229.316406 416.308594 C 249.277344 416.308594 265.46875 400.117188 265.46875 380.152344 L 265.46875 374.371094 L 217.914062 374.371094 C 217.171875 391.464844 203.132812 405.15625 185.878906 405.25 Z M 217.914062 294.433594 L 265.46875 294.433594 L 265.46875 288.648438 C 265.46875 268.6875 249.277344 252.496094 229.316406 252.496094 L 185.878906 252.496094 L 185.878906 263.554688 C 203.132812 263.644531 217.171875 277.339844 217.914062 294.433594 Z M 181.25 263.554688 L 181.25 252.496094 L 137.8125 252.496094 C 117.851562 252.496094 101.660156 268.6875 101.660156 288.648438 L 101.660156 294.433594 L 149.214844 294.433594 C 149.976562 277.339844 164.019531 263.644531 181.25 263.554688 Z M 218.003906 369.746094 L 265.492188 369.746094 L 265.492188 299.035156 L 218.003906 299.035156 Z M 991.488281 174.871094 C 1013 174.871094 1030.414062 157.429688 1030.414062 135.941406 C 1030.414062 114.429688 1012.976562 97.015625 991.488281 97.015625 C 969.976562 97.015625 952.558594 114.453125 952.558594 135.941406 C 952.558594 157.429688 970 174.871094 991.488281 174.871094 Z M 899.40625 140.335938 L 899.40625 131.523438 C 899.40625 97.523438 871.832031 69.953125 837.832031 69.953125 L 730.042969 69.953125 C 696.042969 69.953125 668.46875 97.523438 668.46875 131.523438 L 668.46875 140.335938 C 668.46875 174.339844 696.042969 201.910156 730.042969 201.910156 L 837.832031 201.910156 C 871.832031 201.910156 899.40625 174.339844 899.40625 140.335938 Z M 899.40625 140.335938 " fill-opacity="1" fill-rule="nonzero"/><path fill="#ffffff" d="M 1008.535156 397.199219 C 1007.492188 396.460938 1007.261719 395.003906 1008.003906 393.960938 C 1020.515625 376.523438 1027.15625 355.960938 1027.15625 334.472656 C 1027.15625 312.984375 1020.539062 292.421875 1008.003906 274.980469 C 1007.261719 273.9375 1007.492188 272.503906 1008.535156 271.742188 C 1009.574219 271 1011.007812 271.234375 1011.773438 272.273438 C 1024.863281 290.5 1031.78125 312.011719 1031.78125 334.472656 C 1031.78125 356.929688 1024.863281 378.441406 1011.773438 396.667969 C 1011.308594 397.292969 1010.617188 397.640625 1009.898438 397.640625 C 1009.414062 397.640625 1008.949219 397.5 1008.535156 397.199219 Z M 987.808594 285.34375 C 986.769531 286.082031 986.539062 287.539062 987.277344 288.582031 C 996.945312 302.042969 1002.058594 317.910156 1002.058594 334.496094 C 1002.058594 351.078125 996.945312 366.945312 987.277344 380.410156 C 986.539062 381.449219 986.769531 382.882812 987.808594 383.648438 C 988.226562 383.949219 988.6875 384.085938 989.152344 384.085938 C 989.867188 384.085938 990.585938 383.761719 991.023438 383.113281 C 1001.25 368.867188 1006.660156 352.050781 1006.660156 334.519531 C 1006.660156 316.984375 1001.25 300.167969 991.023438 285.921875 C 990.308594 284.832031 988.851562 284.601562 987.808594 285.34375 Z M 972.058594 368.335938 C 979.183594 358.410156 982.953125 346.707031 982.953125 334.496094 C 982.953125 322.28125 979.183594 310.578125 972.058594 300.65625 C 971.316406 299.613281 969.859375 299.382812 968.820312 300.121094 C 967.777344 300.863281 967.546875 302.320312 968.289062 303.359375 C 974.832031 312.496094 978.304688 323.253906 978.304688 334.496094 C 978.304688 345.734375 974.832031 356.515625 968.289062 365.628906 C 967.546875 366.667969 967.777344 368.101562 968.820312 368.867188 C 969.234375 369.167969 969.699219 369.304688 970.160156 369.304688 C 970.902344 369.28125 971.59375 368.957031 972.058594 368.335938 Z M 950.546875 310.832031 C 949.503906 311.570312 949.273438 313.03125 950.015625 314.070312 C 954.316406 320.0625 956.582031 327.117188 956.582031 334.496094 C 956.582031 341.875 954.316406 348.929688 950.015625 354.917969 C 949.273438 355.960938 949.503906 357.394531 950.546875 358.15625 C 950.960938 358.457031 951.425781 358.597656 951.886719 358.597656 C 952.605469 358.597656 953.320312 358.273438 953.761719 357.625 C 958.617188 350.847656 961.210938 342.84375 961.210938 334.496094 C 961.210938 326.144531 958.640625 318.140625 953.761719 311.363281 C 953.042969 310.324219 951.585938 310.09375 950.546875 310.832031 Z M 112.320312 563 L 127.148438 563 C 133.023438 563 137.789062 558.234375 137.789062 552.359375 L 137.789062 502.027344 C 137.789062 496.152344 133.023438 491.386719 127.148438 491.386719 L 112.320312 491.386719 C 106.445312 491.386719 101.683594 496.152344 101.683594 502.027344 L 101.683594 552.359375 C 101.683594 558.210938 106.445312 563 112.320312 563 Z M 163.972656 491.363281 C 158.097656 491.363281 153.332031 496.128906 153.332031 502.003906 L 153.332031 552.335938 C 153.332031 558.210938 158.097656 562.976562 163.972656 562.976562 L 178.800781 562.976562 C 184.675781 562.976562 189.4375 558.210938 189.4375 552.335938 L 189.4375 502.003906 C 189.4375 496.128906 184.675781 491.363281 178.800781 491.363281 Z M 230.472656 491.363281 L 215.644531 491.363281 C 209.769531 491.363281 205.003906 496.128906 205.003906 502.003906 L 205.003906 552.335938 C 205.003906 558.210938 209.769531 562.976562 215.644531 562.976562 L 230.472656 562.976562 C 236.347656 562.976562 241.113281 558.210938 241.113281 552.335938 L 241.113281 502.003906 C 241.113281 496.128906 236.347656 491.363281 230.472656 491.363281 Z M 282.121094 491.363281 L 267.296875 491.363281 C 261.421875 491.363281 256.65625 496.128906 256.65625 502.003906 L 256.65625 552.335938 C 256.65625 558.210938 261.421875 562.976562 267.296875 562.976562 L 282.121094 562.976562 C 287.996094 562.976562 292.761719 558.210938 292.761719 552.335938 L 292.761719 502.003906 C 292.761719 496.128906 287.996094 491.363281 282.121094 491.363281 Z M 382.046875 491.363281 L 367.21875 491.363281 C 361.34375 491.363281 356.578125 496.128906 356.578125 502.003906 L 356.578125 552.335938 C 356.578125 558.210938 361.34375 562.976562 367.21875 562.976562 L 382.046875 562.976562 C 387.921875 562.976562 392.6875 558.210938 392.6875 552.335938 L 392.6875 502.003906 C 392.710938 496.128906 387.945312 491.363281 382.046875 491.363281 Z M 433.71875 491.363281 L 418.894531 491.363281 C 413.019531 491.363281 408.253906 496.128906 408.253906 502.003906 L 408.253906 552.335938 C 408.253906 558.210938 413.019531 562.976562 418.894531 562.976562 L 433.71875 562.976562 C 439.59375 562.976562 444.359375 558.210938 444.359375 552.335938 L 444.359375 502.003906 C 444.359375 496.128906 439.59375 491.363281 433.71875 491.363281 Z M 485.371094 491.363281 L 470.542969 491.363281 C 464.667969 491.363281 459.902344 496.128906 459.902344 502.003906 L 459.902344 552.335938 C 459.902344 558.210938 464.667969 562.976562 470.542969 562.976562 L 485.371094 562.976562 C 491.246094 562.976562 496.011719 558.210938 496.011719 552.335938 L 496.011719 502.003906 C 496.011719 496.128906 491.246094 491.363281 485.371094 491.363281 Z M 537.019531 491.363281 L 522.195312 491.363281 C 516.320312 491.363281 511.554688 496.128906 511.554688 502.003906 L 511.554688 552.335938 C 511.554688 558.210938 516.320312 562.976562 522.195312 562.976562 L 537.019531 562.976562 C 542.894531 562.976562 547.660156 558.210938 547.660156 552.335938 L 547.660156 502.003906 C 547.660156 496.128906 542.894531 491.363281 537.019531 491.363281 Z M 636.96875 491.363281 L 622.140625 491.363281 C 616.265625 491.363281 611.5 496.128906 611.5 502.003906 L 611.5 552.335938 C 611.5 558.210938 616.265625 562.976562 622.140625 562.976562 L 636.96875 562.976562 C 642.84375 562.976562 647.605469 558.210938 647.605469 552.335938 L 647.605469 502.003906 C 647.605469 496.128906 642.84375 491.363281 636.96875 491.363281 Z M 688.617188 491.363281 L 673.789062 491.363281 C 667.914062 491.363281 663.152344 496.128906 663.152344 502.003906 L 663.152344 552.335938 C 663.152344 558.210938 667.914062 562.976562 673.789062 562.976562 L 688.617188 562.976562 C 694.492188 562.976562 699.257812 558.210938 699.257812 552.335938 L 699.257812 502.003906 C 699.257812 496.128906 694.492188 491.363281 688.617188 491.363281 Z M 740.265625 491.363281 L 725.441406 491.363281 C 719.566406 491.363281 714.800781 496.128906 714.800781 502.003906 L 714.800781 552.335938 C 714.800781 558.210938 719.566406 562.976562 725.441406 562.976562 L 740.265625 562.976562 C 746.144531 562.976562 750.90625 558.210938 750.90625 552.335938 L 750.90625 502.003906 C 750.90625 496.128906 746.144531 491.363281 740.265625 491.363281 Z M 791.917969 491.363281 L 777.089844 491.363281 C 771.214844 491.363281 766.449219 496.128906 766.449219 502.003906 L 766.449219 552.335938 C 766.449219 558.210938 771.214844 562.976562 777.089844 562.976562 L 791.917969 562.976562 C 797.792969 562.976562 802.558594 558.210938 802.558594 552.335938 L 802.558594 502.003906 C 802.558594 496.128906 797.792969 491.363281 791.917969 491.363281 Z M 891.863281 491.363281 L 877.039062 491.363281 C 871.164062 491.363281 866.398438 496.128906 866.398438 502.003906 L 866.398438 552.335938 C 866.398438 558.210938 871.164062 562.976562 877.039062 562.976562 L 891.863281 562.976562 C 897.738281 562.976562 902.503906 558.210938 902.503906 552.335938 L 902.503906 502.003906 C 902.503906 496.128906 897.738281 491.363281 891.863281 491.363281 Z M 943.515625 491.363281 L 928.6875 491.363281 C 922.8125 491.363281 918.046875 496.128906 918.046875 502.003906 L 918.046875 552.335938 C 918.046875 558.210938 922.8125 562.976562 928.6875 562.976562 L 943.515625 562.976562 C 949.390625 562.976562 954.15625 558.210938 954.15625 552.335938 L 954.15625 502.003906 C 954.15625 496.128906 949.390625 491.363281 943.515625 491.363281 Z M 995.164062 491.363281 L 980.339844 491.363281 C 974.464844 491.363281 969.699219 496.128906 969.699219 502.003906 L 969.699219 552.335938 C 969.699219 558.210938 974.464844 562.976562 980.339844 562.976562 L 995.164062 562.976562 C 1001.039062 562.976562 1005.804688 558.210938 1005.804688 552.335938 L 1005.804688 502.003906 C 1005.804688 496.128906 1001.039062 491.363281 995.164062 491.363281 Z M 1031.988281 491.363281 C 1026.113281 491.363281 1021.347656 496.128906 1021.347656 502.003906 L 1021.347656 552.335938 C 1021.347656 558.210938 1026.113281 562.976562 1031.988281 562.976562 L 1046.816406 562.976562 C 1052.691406 562.976562 1057.457031 558.210938 1057.457031 552.335938 L 1057.457031 502.003906 C 1057.457031 496.128906 1052.691406 491.363281 1046.816406 491.363281 Z M 1031.988281 491.363281 " fill-opacity="1" fill-rule="nonzero"/><g clip-path="url(#ea1f0f7859)"><path fill="#000000" d="M 118.382812 741.730469 L 85.816406 741.730469 C 41.796875 741.730469 6.128906 706.0625 6.128906 662.042969 L 6.128906 85.425781 C 6.128906 41.410156 41.796875 5.742188 85.816406 5.742188 L 118.382812 5.742188 C 74.363281 5.742188 38.699219 41.410156 38.699219 85.425781 L 38.699219 662.042969 C 38.699219 706.0625 74.363281 741.730469 118.382812 741.730469 Z M 1035.367188 3.429688 L 394.421875 3.429688 C 393.148438 3.429688 392.109375 4.46875 392.109375 5.742188 C 392.109375 7.011719 393.148438 8.054688 394.421875 8.054688 L 1035.367188 8.054688 C 1081.003906 8.054688 1118.148438 45.179688 1118.148438 90.839844 L 1118.148438 656.632812 C 1118.148438 702.269531 1081.023438 739.417969 1035.367188 739.417969 C 1034.09375 739.417969 1033.050781 740.457031 1033.050781 741.730469 C 1033.050781 743 1034.09375 744.042969 1035.367188 744.042969 C 1083.570312 744.042969 1122.777344 704.835938 1122.777344 656.632812 L 1122.777344 90.839844 C 1122.753906 42.632812 1083.546875 3.429688 1035.367188 3.429688 Z M 149.238281 374.371094 L 100.941406 374.371094 C 99.667969 374.371094 98.628906 373.332031 98.628906 372.058594 C 98.628906 370.785156 99.667969 369.746094 100.941406 369.746094 L 149.167969 369.746094 L 149.167969 299.035156 L 100.941406 299.035156 C 99.667969 299.035156 98.628906 297.996094 98.628906 296.722656 C 98.628906 295.449219 99.667969 294.410156 100.941406 294.410156 L 149.238281 294.410156 C 149.980469 277.316406 164.019531 263.644531 181.273438 263.554688 L 181.273438 252.496094 C 181.273438 251.226562 182.316406 250.183594 183.585938 250.183594 C 184.859375 250.183594 185.898438 251.226562 185.898438 252.496094 L 185.898438 263.554688 C 203.15625 263.644531 217.195312 277.339844 217.9375 294.410156 L 266.230469 294.410156 C 267.503906 294.410156 268.546875 295.449219 268.546875 296.722656 C 268.546875 297.996094 267.503906 299.035156 266.230469 299.035156 L 218.003906 299.035156 L 218.003906 369.746094 L 266.230469 369.746094 C 267.503906 369.746094 268.546875 370.785156 268.546875 372.058594 C 268.546875 373.332031 267.503906 374.371094 266.230469 374.371094 L 217.914062 374.371094 C 217.171875 391.464844 203.132812 405.136719 185.878906 405.226562 L 185.878906 416.46875 C 185.878906 417.742188 184.835938 418.78125 183.5625 418.78125 C 182.292969 418.78125 181.25 417.742188 181.25 416.46875 L 181.25 405.226562 C 164.019531 405.15625 149.976562 391.464844 149.238281 374.371094 Z M 153.773438 372.984375 C 153.773438 388.226562 166.167969 400.625 181.414062 400.625 L 185.691406 400.625 C 200.933594 400.625 213.332031 388.226562 213.332031 372.984375 L 213.332031 295.84375 C 213.332031 280.601562 200.933594 268.203125 185.691406 268.203125 L 181.414062 268.203125 C 166.167969 268.203125 153.773438 280.601562 153.773438 295.84375 Z M 925.519531 135.941406 C 925.519531 99.511719 955.058594 69.976562 991.488281 69.976562 C 1027.917969 69.976562 1057.457031 99.511719 1057.457031 135.941406 C 1057.457031 172.375 1027.941406 201.910156 991.488281 201.910156 C 955.035156 201.910156 925.519531 172.375 925.519531 135.941406 Z M 930.144531 135.941406 C 930.144531 169.78125 957.671875 197.285156 991.488281 197.285156 C 1025.304688 197.285156 1052.828125 169.757812 1052.828125 135.941406 C 1052.828125 102.101562 1025.304688 74.601562 991.488281 74.601562 C 957.671875 74.601562 930.144531 102.101562 930.144531 135.941406 Z M 137.8125 614.117188 L 137.8125 656.425781 C 137.8125 662.300781 133.046875 667.0625 127.171875 667.0625 L 112.34375 667.0625 C 106.46875 667.0625 101.707031 662.300781 101.707031 656.425781 L 101.707031 614.117188 C 101.707031 608.242188 106.46875 603.476562 112.34375 603.476562 L 127.171875 603.476562 C 133.023438 603.476562 137.8125 608.242188 137.8125 614.117188 Z M 133.1875 614.117188 C 133.1875 610.789062 130.480469 608.105469 127.171875 608.105469 L 112.34375 608.105469 C 109.015625 608.105469 106.332031 610.8125 106.332031 614.117188 L 106.332031 656.425781 C 106.332031 659.753906 109.039062 662.4375 112.34375 662.4375 L 127.171875 662.4375 C 130.503906 662.4375 133.1875 659.730469 133.1875 656.425781 Z M 189.460938 614.117188 L 189.460938 656.425781 C 189.460938 662.300781 184.699219 667.0625 178.820312 667.0625 L 163.996094 667.0625 C 158.121094 667.0625 153.355469 662.300781 153.355469 656.425781 L 153.355469 614.117188 C 153.355469 608.242188 158.121094 603.476562 163.996094 603.476562 L 178.820312 603.476562 C 184.699219 603.476562 189.460938 608.242188 189.460938 614.117188 Z M 184.835938 614.117188 C 184.835938 610.789062 182.128906 608.105469 178.820312 608.105469 L 163.996094 608.105469 C 160.664062 608.105469 157.980469 610.8125 157.980469 614.117188 L 157.980469 656.425781 C 157.980469 659.753906 160.6875 662.4375 163.996094 662.4375 L 178.820312 662.4375 C 182.152344 662.4375 184.835938 659.730469 184.835938 656.425781 Z M 278.28125 614.117188 L 278.28125 656.425781 C 278.28125 662.300781 273.519531 667.0625 267.644531 667.0625 L 252.816406 667.0625 C 246.941406 667.0625 242.175781 662.300781 242.175781 656.425781 L 242.175781 614.117188 C 242.175781 608.242188 246.941406 603.476562 252.816406 603.476562 L 267.644531 603.476562 C 273.519531 603.476562 278.28125 608.242188 278.28125 614.117188 Z M 273.65625 614.117188 C 273.65625 610.789062 270.949219 608.105469 267.644531 608.105469 L 252.816406 608.105469 C 249.484375 608.105469 246.800781 610.8125 246.800781 614.117188 L 246.800781 656.425781 C 246.800781 659.753906 249.507812 662.4375 252.816406 662.4375 L 267.644531 662.4375 C 270.972656 662.4375 273.65625 659.730469 273.65625 656.425781 Z M 329.933594 614.117188 L 329.933594 656.425781 C 329.933594 662.300781 325.167969 667.0625 319.292969 667.0625 L 304.464844 667.0625 C 298.589844 667.0625 293.828125 662.300781 293.828125 656.425781 L 293.828125 614.117188 C 293.828125 608.242188 298.589844 603.476562 304.464844 603.476562 L 319.292969 603.476562 C 325.167969 603.476562 329.933594 608.242188 329.933594 614.117188 Z M 325.308594 614.117188 C 325.308594 610.789062 322.601562 608.105469 319.292969 608.105469 L 304.464844 608.105469 C 301.136719 608.105469 298.453125 610.8125 298.453125 614.117188 L 298.453125 656.425781 C 298.453125 659.753906 301.160156 662.4375 304.464844 662.4375 L 319.292969 662.4375 C 322.625 662.4375 325.308594 659.730469 325.308594 656.425781 Z M 230.242188 604.613281 C 229.085938 604.078125 227.695312 604.589844 227.1875 605.769531 L 201.1875 663.0625 C 200.65625 664.21875 201.167969 665.605469 202.347656 666.117188 C 202.648438 666.253906 202.96875 666.324219 203.292969 666.324219 C 204.171875 666.324219 205.003906 665.816406 205.398438 664.960938 L 231.398438 607.664062 C 231.929688 606.507812 231.398438 605.121094 230.242188 604.613281 Z M 102.492188 72.265625 L 424.003906 72.265625 C 425.277344 72.265625 426.316406 71.222656 426.316406 69.953125 C 426.316406 68.679688 425.277344 67.636719 424.003906 67.636719 L 102.492188 67.636719 C 101.21875 67.636719 100.179688 68.679688 100.179688 69.953125 C 100.179688 71.222656 101.21875 72.265625 102.492188 72.265625 Z M 102.492188 106.683594 L 293.804688 106.683594 C 295.074219 106.683594 296.117188 105.640625 296.117188 104.371094 C 296.117188 103.097656 295.074219 102.054688 293.804688 102.054688 L 102.492188 102.054688 C 101.21875 102.054688 100.179688 103.097656 100.179688 104.371094 C 100.179688 105.640625 101.21875 106.683594 102.492188 106.683594 Z M 102.492188 106.683594 " fill-opacity="1" fill-rule="nonzero"/></g></svg>