<?xml version="1.0" encoding="UTF-8"?>
<svg width="1200pt" height="1200pt" version="1.1" viewBox="0 0 1200 1200" xmlns="http://www.w3.org/2000/svg">
 <path d="m450.37 876.28 357.24-357.24 55.172 55.172-357.24 357.24z"/>
 <path d="m349.03 774.89 357.24-357.24 76.359 76.359-357.24 357.24z"/>
 <path d="m957.61 480c10.781-10.781 16.781-25.219 16.781-40.781 0-15.609-6-30-16.781-40.781l-156-156c-10.781-10.781-25.219-16.781-40.781-16.781-15.609 0-30 6-40.781 16.781l-69.656 69.562 237.61 237.61z"/>
 <path d="m258 974.39 208.78-28.781-211.18-212.39-28.781 208.78c0 8.3906 2.3906 16.781 9.6094 22.781 4.7812 6 13.172 9.6094 21.562 9.6094z"/>
 <path d="m267.98 693.84 357.24-357.24 55.172 55.172-357.24 357.24z"/>
</svg>
