<?xml version="1.0" encoding="UTF-8"?>
<svg width="1200pt" height="1200pt" version="1.1" viewBox="0 0 1200 1200" xmlns="http://www.w3.org/2000/svg">
 <path d="m166.55 530.53-0.32812 0.046875c-0.1875 0.046875-0.375 0.14062-0.5625 0.1875-1.3594 0.28125-2.625 0.79688-3.8438 1.4531-0.42188 0.23438-0.79688 0.51562-1.2188 0.79688-0.89062 0.60938-1.6875 1.3125-2.4375 2.1094-0.375 0.42188-0.75 0.84375-1.0781 1.3125-0.23438 0.28125-0.51562 0.51562-0.70312 0.84375l-71.484 114.56c-8.8594 14.016-10.734 30.984-5.1562 46.641 5.5781 15.703 17.906 27.703 33.75 33l40.688 13.594v141.42c0 36.422 21.375 69.75 54.469 84.891l352.78 160.31c12.188 5.5312 25.219 8.25 38.297 8.2969 0.09375 0 0.1875 0.046875 0.28125 0.046875s0.1875-0.046875 0.32812-0.046875c13.078-0.046875 26.156-2.8125 38.297-8.2969l352.78-160.31c33.094-15.141 54.422-48.469 54.422-84.891v-141.42l40.688-13.594c15.844-5.25 28.125-17.297 33.75-33 5.5781-15.609 3.7031-32.625-5.1094-46.547l-71.531-114.66c-0.1875-0.32812-0.46875-0.51562-0.70313-0.79688-0.32812-0.46875-0.70312-0.89062-1.125-1.3125-0.70312-0.75-1.4531-1.4062-2.2969-2.0156-0.46875-0.32812-0.89063-0.65625-1.4062-0.89062-1.0781-0.5625-2.2031-0.98438-3.375-1.2656-0.32813-0.09375-0.60938-0.28125-0.9375-0.375l-416.95-75.844c-11.156-2.1094-22.453-2.1094-33.562 0l-416.68 75.797h-0.046875zm-59.109 158.02c-2.5312-7.0312-1.6875-14.719 2.3906-21.094l66.516-106.59 392.34 53.531-167.76 167.76c-6.4688 6.4688-16.266 8.7656-24.938 5.8594l-202.45-67.594c-0.09375-0.046875-0.1875 0-0.32812-0.046875l-50.484-16.828c-7.2188-2.3906-12.797-7.875-15.328-15zm113.39 256.03c-22.641-10.359-37.266-33.188-37.266-58.172v-131.58l183.1 61.078c4.4531 1.5 8.9531 2.2031 13.453 2.4844 0.70312 0.046875 1.3594 0.14062 2.0625 0.1875 0.5625 0 1.0781 0.14062 1.6406 0.14062 3.8906 0 7.7344-0.51562 11.484-1.3594 0.84375-0.1875 1.5938-0.51562 2.3906-0.75 3.4688-0.9375 6.8438-2.25 10.078-3.8906 1.0312-0.51562 2.0625-1.0312 3.0938-1.6406 3.8438-2.25 7.5-4.875 10.734-8.1094l163.64-163.64v469.45c-3.9844-0.9375-7.9688-2.1562-11.766-3.8906l-352.74-160.31zm795.61-58.172c0 24.984-14.625 47.812-37.219 58.172l-352.74 160.31c-3.7969 1.7344-7.7812 2.9531-11.766 3.8906v-469.45l163.64 163.64c3.2344 3.2344 6.8906 5.8125 10.688 8.0625 1.0781 0.65625 2.1562 1.1719 3.2344 1.7344 3.1406 1.5938 6.375 2.8594 9.75 3.7969 0.9375 0.28125 1.8281 0.60938 2.7656 0.84375 3.75 0.84375 7.5469 1.3125 11.391 1.3125 0.51562 0 1.0312-0.09375 1.5469-0.14062 0.79688 0 1.5469-0.14062 2.2969-0.1875 4.4531-0.32812 8.9531-1.0312 13.359-2.4844l183.1-61.078v131.58zm76.125-197.86c-2.5312 7.125-8.1094 12.562-15.328 15l-50.484 16.828c-0.09375 0.046875-0.1875 0-0.32812 0.046875l-202.45 67.594c-8.6719 2.9062-18.469 0.60938-24.938-5.8594l-167.76-167.76 392.34-53.531 66.562 106.64c3.9844 6.3281 4.8281 13.969 2.3438 21zm-503.95-204.89c7.5469-1.4062 15.234-1.4062 22.875 0l326.11 59.297-337.6 46.031-337.6-46.031zm64.219-281.76c-1.5938-0.23438-2.9531-1.2188-3.7031-2.6719l-18.375-37.219c-5.8125-11.766-17.625-19.125-30.75-19.125s-24.938 7.3125-30.75 19.125l-18.375 37.219c-0.70312 1.4531-2.1094 2.4375-3.7031 2.6719l-41.062 5.9531c-13.031 1.875-23.625 10.828-27.703 23.344s-0.75 25.969 8.6719 35.156l29.719 28.969c1.125 1.125 1.6875 2.7188 1.4062 4.3125l-7.0312 40.922c-2.2031 12.938 3 25.828 13.641 33.562s24.469 8.7188 36.141 2.625l36.703-19.312c1.4531-0.75 3.1406-0.75 4.5938 0l36.75 19.312c5.0625 2.6719 10.547 3.9844 15.984 3.9844 7.0781 0 14.109-2.2031 20.156-6.6094 10.641-7.7344 15.844-20.578 13.641-33.562l-7.0312-40.922c-0.28125-1.5938 0.23438-3.1875 1.4062-4.3125l29.719-28.969c9.4219-9.1875 12.75-22.641 8.6719-35.156s-14.672-21.469-27.703-23.344l-41.062-5.9531zm39.516 43.406-29.719 28.969c-8.1094 7.875-11.766 19.219-9.8906 30.375l7.0312 40.922c0.46875 2.625-1.0312 4.125-1.9219 4.7812-0.9375 0.65625-2.8594 1.5938-5.1562 0.375l-36.75-19.312c-4.9688-2.625-10.453-3.9375-15.938-3.9375s-10.969 1.3125-15.984 3.9375l-36.703 19.312c-2.2969 1.2656-4.2188 0.32812-5.1562-0.375-0.9375-0.65625-2.3906-2.2031-1.9219-4.7812l7.0312-40.922c1.9219-11.156-1.7812-22.5-9.8438-30.375l-29.719-28.969c-1.875-1.8281-1.5938-3.9375-1.2656-5.0156 0.375-1.0781 1.3594-2.9531 3.9844-3.3281l41.062-5.9531c11.156-1.6406 20.812-8.625 25.828-18.75l18.375-37.219c2.3438-4.7344 6.4688-4.7344 8.8125 0l18.375 37.219c5.0156 10.125 14.672 17.156 25.828 18.797l41.062 5.9531c2.625 0.375 3.6094 2.25 3.9844 3.3281 0.32812 1.0781 0.65625 3.1875-1.2656 5.0156zm94.406-180.98c5.7188 5.7188 5.7188 15.047 0 20.766l-58.781 58.781c-2.8594 2.8594-6.6094 4.3125-10.406 4.3125-3.75 0-7.5-1.4531-10.406-4.3125-5.7188-5.7188-5.7188-15.047 0-20.766l58.781-58.781c5.7188-5.7188 15.047-5.7188 20.766 0zm185.58 181.87h-176.39c-8.1094 0-14.719-6.5625-14.719-14.719 0-8.1094 6.5625-14.719 14.719-14.719h176.39c8.1094 0 14.719 6.5625 14.719 14.719 0 8.1094-6.5625 14.719-14.719 14.719zm-205.18 92.484 78.375 78.375c5.7188 5.7188 5.7188 15.047 0 20.766-2.8594 2.8594-6.6094 4.3125-10.406 4.3125-3.75 0-7.5-1.4531-10.406-4.3125l-78.375-78.375c-5.7188-5.7188-5.7188-15.047 0-20.766s15.047-5.7188 20.766 0zm-274.36-215.58c5.7188 5.7188 5.7188 15.047 0 20.766-2.8594 2.8594-6.6094 4.3125-10.406 4.3125-3.75 0-7.5-1.4531-10.406-4.3125l-58.781-58.781c-5.7188-5.7188-5.7188-15.047 0-20.766s15.047-5.7188 20.766 0l58.781 58.781zm-88.781 93.703c8.1094 0 14.719 6.5625 14.719 14.719 0 8.1094-6.5625 14.719-14.719 14.719h-176.39c-8.1094 0-14.719-6.5625-14.719-14.719 0-8.1094 6.5625-14.719 14.719-14.719zm49.594 121.87c5.7188 5.7188 5.7188 15.047 0 20.766l-78.375 78.375c-2.8594 2.8594-6.6094 4.3125-10.406 4.3125-3.75 0-7.5-1.4531-10.406-4.3125-5.7188-5.7188-5.7188-15.047 0-20.766l78.375-78.375c5.7188-5.7188 15.047-5.7188 20.766 0zm297.71 604.26 195.98-78.375c7.5469-3 16.078 0.65625 19.078 8.2031s-0.65625 16.078-8.2031 19.078l-195.98 78.375c-1.7812 0.70312-3.6562 1.0312-5.4375 1.0312-5.8125 0-11.344-3.5156-13.641-9.2344-3-7.5469 0.65625-16.078 8.2031-19.078zm-255.24 19.078c-2.2969 5.7656-7.8281 9.2344-13.641 9.2344-1.8281 0-3.6562-0.32812-5.4375-1.0312l-195.98-78.375c-7.5469-3-11.203-11.578-8.2031-19.078 3-7.5469 11.578-11.203 19.078-8.2031l195.98 78.375c7.5469 3 11.203 11.578 8.2031 19.078z"/>
</svg>
