<?xml version="1.0" encoding="UTF-8"?>
<svg width="1200pt" height="1200pt" version="1.1" viewBox="0 0 1200 1200" xmlns="http://www.w3.org/2000/svg">
 <path d="m999.94 468.74 120.47-137.63c3.8438-4.4062 5.4375-10.312 4.3125-15.938-1.125-5.7188-4.7812-10.594-10.031-13.125l-375-187.5c-7.6875-3.8438-16.875-1.9688-22.5 4.4062l-117.19 133.78-117.19-133.87c-5.625-6.375-14.812-8.25-22.5-4.4062l-375 187.5c-5.1562 2.625-8.9062 7.4062-10.031 13.125s0.46875 11.625 4.3125 15.938l120.47 137.72-120.37 137.63c-3.8438 4.4062-5.4375 10.312-4.3125 15.938 1.125 5.7188 4.7812 10.594 10.031 13.125l120.84 60.562v185.26c0 7.125 4.0312 13.594 10.406 16.781l375 187.5c0.75 0.375 1.5 0.5625 2.25 0.84375 0.46875 0.1875 0.9375 0.375 1.4062 0.46875 1.5938 0.375 3.0938 0.65625 4.6875 0.65625s3.1875-0.28125 4.6875-0.65625c0.46875-0.09375 0.9375-0.375 1.4062-0.46875 0.75-0.28125 1.5-0.46875 2.25-0.84375l375-187.5c6.375-3.1875 10.406-9.6562 10.406-16.781v-185.26l120.84-60.469c5.1562-2.625 8.9062-7.4062 10.031-13.125s-0.46875-11.625-4.3125-15.938zm-66.844 0-333.1 166.5-333.1-166.5 333.1-166.5zm-689.34 246 216.66 108.28c1.6875 0.84375 3.4688 1.3125 5.3438 1.5938 0.46875 0.09375 0.9375 0.09375 1.5 0.1875 0.5625 0 1.0312 0.1875 1.5938 0.1875 1.0312 0 2.1562-0.1875 3.1875-0.375 0.1875 0 0.375 0 0.5625-0.09375 1.6875-0.375 3.375-1.0312 4.9688-1.875 0.375-0.1875 0.75-0.46875 1.125-0.65625 1.5938-0.9375 3-2.0625 4.3125-3.4688l98.25-112.41v332.26l-337.5-168.74zm712.5 154.87-337.5 168.74v-332.26l98.438 112.41c1.2188 1.4062 2.7188 2.5312 4.3125 3.4688 0.375 0.1875 0.75 0.46875 1.125 0.65625 1.5938 0.84375 3.1875 1.5 4.9688 1.875 0.1875 0 0.375 0 0.5625 0.09375 0.9375 0.1875 2.0625 0.375 3.0938 0.375 0.5625 0 1.0312-0.09375 1.5938-0.1875 0.46875 0 0.9375-0.09375 1.5-0.1875 1.7812-0.28125 3.5625-0.75 5.3438-1.5938l216.56-108.28z"/>
</svg>
