<?xml version="1.0" encoding="UTF-8"?>
<svg width="1200pt" height="1200pt" version="1.1" viewBox="0 0 1200 1200" xmlns="http://www.w3.org/2000/svg">
 <path d="m368.68 1042.6-110.39 39.562c-33.984-11.625-66.516-26.719-97.922-48.703-22.922-16.031-46.125-35.438-66.938-57.328l31.969-89.25c29.297 35.719 62.109 67.688 103.36 94.359 41.156 26.625 89.859 49.219 139.92 61.359zm-17.25-167.76c-66.188-43.641-119.34-96.844-165.28-157.4l-36.141 100.78c27.328 48.984 72.141 91.969 116.02 122.63 57.375 40.172 118.36 57.703 185.63 72l118.31-42.375c-78.281-17.578-155.06-53.719-218.53-95.625zm-228.32 199.08c-18.469-11.953-35.203-24.984-50.766-38.906l-9.1406 25.547c-7.0312 19.359-2.25 40.406 12.234 55.031 10.125 10.125 23.438 15.469 37.078 15.469 6.0469 0 12.141-0.9375 18.047-3.0938l55.078-19.734c-22.078-10.125-43.125-21.797-62.531-34.312zm819.84-792.32-26.156-37.312-82.594 57.844 37.594 53.625zm9.7969 402.24 26.203-37.266-82.453-58.031-37.688 53.531zm-795.79-298.45 42.375-7.875-17.391-93.797-60.844 11.297zm312.47-234.05-40.125 10.5 23.344 88.922 57.703-15.141zm201.32 435.56c31.688 16.828 67.734 40.219 103.69 21 20.719-11.156 31.406-32.344 40.219-53.156 20.109-47.531 29.438-74.719 84.562-49.359 32.438 14.859 107.48 64.031 121.18 1.0781 3.4219-15.75 2.4375-32.016 0.375-48.188l-0.28125-2.4844c-0.79687-5.8125-1.6875-11.578-2.5312-17.297 18.422-40.5 90.141-23.016 122.11-9.1875v-45.281c-37.453-16.266-117.47-34.031-125.76 23.812l-0.14062 0.46875c-0.046875 0.28125-0.14062 0.51562-0.1875 0.84375-1.5 12.234-1.0781 24.328 0.09375 36.375l0.42188 4.0312c0.84375 7.5 1.875 14.953 3 22.453-21.281 64.641-137.63-46.5-175.45-17.859-22.734 17.203-25.359 59.297-40.641 82.312-34.406 51.891-85.125 29.531-130.69 5.25zm467.63 230.48v45.281c-38.859-54.891-89.578-102.61-160.55-103.69-21.938-0.32812-45.75 2.25-68.156 8.4844 40.5 35.484 66.844 84.656 47.016 139.55-22.359 62.016-113.62 28.078-132.05-18-8.9531-22.359-8.1562-57.938-4.6406-81.656 2.2969-15.469 8.2031-28.5 16.359-39.656-34.641-12.562-70.922-18.75-100.5-18.422-13.828 0.1875-26.672 1.5-38.719 3.8438 37.5 69.797 46.031 130.18 16.312 159.98-0.84375 0.84375-1.6406 1.6875-2.625 2.3906-5.0156 4.6406-10.828 8.0625-17.344 10.688l-4.4062 1.5469-32.016 11.484c-96.938-19.828-184.69-46.688-268.26-104.72-68.578-47.578-135-112.97-177.32-187.97l57.047-159.19c1.0781-3.0938 3.1875-5.4844 6.0469-6.7969 1.0781-1.4062 2.3906-2.8594 3.7031-4.1719 12.234-12.234 29.484-18.562 51.094-18.562 15.375 0 32.719 3.3281 51.281 9.3281-15.891-37.312-52.266-54.656-85.172-79.922-22.969-17.719-32.438-35.344-35.156-59.438l-0.75-9.75c-0.09375-2.3906-0.23438-4.7344-0.23438-7.2188 0-2.7656 0.14062-5.3906 0.23438-8.0625l0.70312-10.781c2.4375-26.203 10.875-48.047 33.516-68.25 30.656-27.375 56.484-31.594 70.266-64.875-11.016-19.078-32.672-34.922-49.688-44.531l0.09375-45.281c32.344 18.234 49.922 40.922 55.547 70.266l1.125 6.9844c1.2656 10.172 1.2656 21.141 0 32.953-3.7969 34.875-19.828 54.516-48.609 70.734-24.094 13.641-47.109 33-57.281 58.781 23.109 52.172 109.17 64.453 121.22 129.19 1.9688 10.453 2.9062 21.328 2.7656 32.109 43.031 15.609 92.344 45.609 141.24 86.062-12.75-21.141-25.359-42.422-26.625-70.219-1.1719-24.562-1.8281-51.094 3.1875-75.141 8.3906-40.688 35.016-81.984 74.625-98.25 20.578-93.094 106.64-135.05 207.28-141.42-0.65625 0 1.2656 45.188 0 45.281-69.891 4.4531-156.79 29.812-193.69 91.641 37.828-9.1875 62.297 12.047 66.938 44.812l0.46875 4.0781c0.14062 1.5 0.28125 3 0.32812 4.5469 0.89062 27.188 4.5469 69.797-32.062 73.359-39.094 3.7969-51.094-32.812-53.484-64.312l-0.14062-2.8125c-0.09375-1.2656-0.1875-2.5781-0.23438-3.7969-23.953 13.078-45.797 33.516-54.891 50.438-14.016 26.156-19.828 46.922-9.9844 71.156 12.328 30.234 40.406 51.703 44.719 85.312 0.375 2.9531 0.70312 6.0938 0.98438 9.2812 9.0469 8.25 18 16.734 26.859 25.641 35.531 35.672 65.344 72.422 88.781 107.81 48.75-15.469 102.84-10.5 150.89 5.25 14.719 4.8281 30.047 11.672 44.906 20.109 29.859-17.438 68.109-24.609 100.97-25.266 74.484-1.3594 127.26 46.172 168.1 103.78zm-553.97-457.31c6.6094 14.016 17.484 25.219 34.641 28.5 17.812 3.4688 30.562-3.8438 37.453-16.406-14.016-27.188-43.734-25.453-72.094-12.094zm89.672 399.24c-45.562 15.703-76.828 49.828-96.844 101.34l-0.09375-45.375c15.469-39.75 32.953-73.453 73.266-92.719 0.23437-0.09375 0.46875-0.1875 0.75-0.32813-21.656-31.875-49.266-65.719-83.203-99.75-3.1875-3.1875-6.375-6.2344-9.6094-9.3281-0.65625 13.359-2.3438 26.484-5.4844 37.359-13.219 46.078-82.5 92.625-130.5 72.094l-0.09375-45.469c27 11.578 62.109-0.89062 85.125-16.219 23.016-15.328 36.188-33.281 43.172-55.266-55.547-52.312-114.61-91.922-163.87-111.14-6.375 31.359-25.266 57.422-63.375 61.547l-0.09375-45.281c18.984-2.0156 35.016-9.9375 46.312-22.266-14.578-4.4531-28.125-6.8906-40.078-6.8906-14.016 0-24.984 3.4688-32.578 10.125-0.60938 0.375-1.0781 0.84375-1.6875 1.4062-2.25 2.25-4.1719 4.875-5.7188 7.8281-3.9375 7.125-5.9531 16.266-5.9531 27.094 0 52.922 47.062 145.26 140.39 239.06 83.906 84.141 179.72 140.76 238.45 140.76 11.156 0 20.344-2.1562 27.469-6.4219 2.4844-1.4062 4.7344-3.0938 6.7969-5.1094 0.84375-0.84375 1.5469-1.6875 2.25-2.625 18.188-22.547 9.6562-72.75-24.797-134.44zm197.53 23.766c-22.078 12.656-39.562 30.844-47.438 55.922 9.1406 26.344 29.672 47.297 58.359 53.859 27.516 6.2812 57.328-2.7656 70.406-26.156-12.609-36.094-43.922-64.031-81.328-83.625z"/>
</svg>
