<?xml version="1.0" encoding="UTF-8"?>
<svg width="1200pt" height="1200pt" version="1.1" viewBox="0 0 1200 1200" xmlns="http://www.w3.org/2000/svg">
 <path d="m821.81 484.87-108.94-12.188c-3.5625-0.375-6.5625-2.25-8.25-5.0625l-62.438-106.31c-8.625-14.625-24.75-23.812-42.188-23.812s-33.562 9.1875-42.188 23.812l-62.438 106.31c-1.6875 2.8125-4.6875 4.6875-8.25 5.0625l-109.12 12.188c-23.062 2.625-40.688 21.75-40.688 44.625 0 11.438 4.3125 22.312 12.375 30.562l79.125 82.5c2.0625 2.0625 2.8125 4.875 2.4375 7.5l-18.75 120c-2.0625 13.5 1.6875 27.188 10.688 37.688 15 17.625 42 22.5 63.188 10.125l107.25-66.188c3.75-2.25 8.625-2.25 12.375 0l107.81 66.375c7.6875 4.5 16.312 6.75 25.312 6.75 14.625 0 28.312-6.1875 37.688-17.25 9-10.5 12.75-24.188 10.688-37.688l-18.75-120.19c-0.375-2.625 0.5625-5.4375 2.4375-7.5l79.125-82.5c7.875-8.25 12.375-19.125 12.375-30.562 0-22.688-17.438-41.812-40.688-44.625zm1.3125 49.312-79.125 82.5c-10.125 10.5-14.625 24.938-12.375 39.188l18.75 120.19c0.5625 3.375-0.9375 6-2.25 7.5-3.5625 4.125-11.062 4.875-15 2.625l-107.44-66.188c-7.6875-4.6875-16.688-7.3125-25.875-7.3125s-18.188 2.4375-25.875 7.3125l-106.88 66c-4.875 2.8125-11.812 1.875-15.375-2.25-1.3125-1.5-2.8125-4.125-2.25-7.5l18.75-120.19c2.25-14.25-2.25-28.688-12.375-39.188l-79.125-82.5c-1.3125-1.3125-1.875-3-1.875-4.6875 0-3.5625 3.1875-6.75 7.3125-7.3125l108.94-12.188c15.188-1.6875 28.875-10.5 36.375-23.438l62.438-106.31c3.75-6.5625 15.75-6.5625 19.5 0l62.438 106.31c7.6875 12.938 21.188 21.75 36.375 23.438l108.94 12.188c4.125 0.5625 7.5 3.75 7.5 7.3125 0 1.6875-0.5625 3.375-1.875 4.6875z"/>
 <path d="m581.26 993.74h-110.25c6.375-12 10.125-25.312 11.25-39.188 2.0625-28.875-8.625-57.375-29.062-77.812l-80.438-80.438c-25.875-82.688-103.5-140.06-190.69-140.06h-125.81c-10.312 0-18.75 8.4375-18.75 18.75s8.4375 18.75 18.75 18.75h126c72 0 136.13 48.375 156 117.56 0.9375 3 2.4375 5.8125 4.6875 8.0625l83.625 83.625c12.75 12.75 19.5 30.562 18.188 48.75-0.9375 12.75-5.625 24.562-13.312 34.312l-137.06-137.06c-7.3125-7.3125-19.125-7.3125-26.438 0s-7.3125 19.125 0 26.438l150 150c1.6875 1.6875 3.75 3.1875 6 4.125s4.5 1.3125 6.9375 1.3125h150.19c30.938 0 56.25 25.312 56.25 56.25h-208.31c-20.25 0-40.5-4.875-58.688-13.875l-86.625-43.312c-18.188-9-34.125-22.5-46.312-38.625l-80.062-106.69c-10.5-14.062-27.375-22.5-45-22.5h-56.25c-10.312 0-18.75 8.4375-18.75 18.75s8.4375 18.75 18.75 18.75h56.25c5.8125 0 11.438 2.8125 15 7.5l80.062 106.69c15.562 20.812 36.188 38.062 59.625 49.688l86.625 43.312c23.25 11.625 49.312 17.812 75.375 17.812h208.31c20.625 0 37.5-16.875 37.5-37.5 0-51.75-42-93.75-93.75-93.75z"/>
 <path d="m1143.7 506.26h-126c-72 0-136.13-48.375-156-117.56-0.9375-3-2.4375-5.8125-4.6875-8.0625l-83.625-83.625c-12.75-12.75-19.5-30.562-18.188-48.75 0.9375-12.75 5.625-24.562 13.312-34.312l137.06 137.06c7.3125 7.3125 19.125 7.3125 26.438 0s7.3125-19.125 0-26.438l-150-150c-1.6875-1.6875-3.5625-3-5.625-3.75-0.5625-0.1875-1.125-0.1875-1.6875-0.375-1.6875-0.5625-3.375-0.9375-5.25-1.125h-150.56c-30.938 0-56.25-25.312-56.25-56.25h208.31c20.25 0 40.5 4.875 58.688 13.875l86.625 43.312c18.188 9 34.125 22.5 46.312 38.625l80.062 106.69c10.5 14.062 27.375 22.5 45 22.5h56.25c10.312 0 18.75-8.4375 18.75-18.75s-8.4375-18.75-18.75-18.75h-56.25c-5.8125 0-11.438-2.8125-15-7.5l-80.062-106.69c-15.562-20.812-36.188-38.062-59.625-49.688l-86.625-43.312c-23.25-11.625-49.312-17.812-75.375-17.812h-208.31c-20.625 0-37.5 16.875-37.5 37.5 0 51.75 42 93.75 93.75 93.75h110.25c-6.375 12-10.125 25.312-11.25 39.188-2.0625 28.875 8.625 57.375 29.062 77.812l80.438 80.438c25.875 82.688 103.5 140.06 190.69 140.06h126c10.312 0 18.75-8.4375 18.75-18.75s-8.4375-18.75-18.75-18.75z"/>
</svg>
