<?xml version="1.0" encoding="UTF-8"?>
<svg width="1200pt" height="1200pt" version="1.1" viewBox="0 0 1200 1200" xmlns="http://www.w3.org/2000/svg">
 <path d="m1131.7 480.59c-17.566-57.344-44.285-111.27-79.414-160.29-34.73-48.441-76.766-90.82-124.94-125.95-48.707-35.52-102.41-62.688-159.62-80.742-20.684-6.5508-42.039-11.918-63.594-16.004 0-0.074219 0.003907-0.14844 0.003907-0.22266 0-53.695-46.707-97.383-104.12-97.383s-104.12 43.687-104.12 97.383c0 0.074219 0.003907 0.14844 0.003907 0.22266-21.559 4.0859-42.91 9.4531-63.586 16.004-57.211 18.059-110.92 45.223-159.62 80.746-48.172 35.133-90.207 77.512-124.94 125.96-35.129 49.008-61.844 102.94-79.41 160.27-16.191 52.688-24.398 107.64-24.398 163.34 0 55.695 8.207 110.65 24.395 163.34 17.574 57.367 44.301 111.3 79.438 160.28 34.582 48.27 76.449 90.535 124.48 125.66 0.1875 0.13672 0.37891 0.26953 0.55469 0.39453 48.672 35.477 102.34 62.613 159.5 80.652 34.898 11.035 71.133 18.617 107.68 22.531 19.777 2.1367 39.973 3.2227 60.02 3.2227s40.246-1.082 60.016-3.2227c36.559-3.9141 72.793-11.496 107.69-22.527 57.164-18.043 110.83-45.18 159.5-80.656 0.17969-0.125 0.38281-0.26562 0.60547-0.42969 47.984-35.082 89.848-77.344 124.43-125.61 35.137-48.992 61.863-102.92 79.438-160.28 16.188-52.691 24.395-107.65 24.395-163.34-0.003907-55.699-8.2109-110.66-24.398-163.34zm-947.91 333.41h117.63c6.5664 47.898 16.062 94.375 28.301 138.48h-104.47c-17.574-45.594-31.488-92.082-41.465-138.48zm832.67-340.14h-117.83c-6.5703-47.91-16.062-94.375-28.297-138.45l104.81 0.003906c17.516 45.566 31.383 92.047 41.316 138.45zm-406.91 602.43v-104.76h115.24c-7.8008 37.34-17.078 72.492-27.648 104.76zm-214.49 0c-15.113-32.387-28.52-67.539-39.949-104.76h100.7c7.6367 37.188 16.703 72.34 27.059 104.76zm455.48-123.81h-102.55c8.2578-43.652 14.637-90.129 19.012-138.48h112.39c-6.6953 47.988-16.379 94.48-28.855 138.48zm-250.52-892.52c20.152 0 37.027 12.621 41.172 29.422-27.246-1.9844-55.062-1.9883-82.344 0 4.1445-16.801 21.02-29.422 41.172-29.422zm-128.57 892.52c-8.375-43.559-14.844-90.043-19.277-138.48h138.33v138.48zm257.15-617.07c8.375 43.562 14.844 90.043 19.277 138.45l-138.33-0.003906v-138.45zm20.91 459.55h-139.96v-141.5h145.74c-0.22266 48.77-2.1602 96.27-5.7773 141.5zm-159.01-302.05v141.5h-145.74c0.22266-48.77 2.1602-96.27 5.7734-141.5zm19.047-300.38v-85.508c13.809 0.24219 27.633 0.97656 41.203 2.25 0.88672 0.085937 1.7734 0.17188 2.6602 0.26172 5.5391 9.2031 20.531 36.117 37.254 82.996zm-300.31 460.93h116.47c0.22266 48.73 2.1406 96.227 5.7148 141.5h-113.27c-5.5703-45.684-8.5664-93.188-8.9141-141.5zm465.09-19.047c-0.22266-48.734-2.1406-96.23-5.7148-141.5h113.27c5.5742 45.68 8.5664 93.188 8.918 141.5zm70.605-318.05h-100.7c-7.6406-37.215-16.711-72.379-27.059-104.79h87.812c15.102 32.371 28.512 67.527 39.945 104.79zm-254.44-104.79v104.79h-115.24c7.8047-37.371 17.086-72.527 27.652-104.79zm-138.44 123.84c-8.2578 43.656-14.641 90.125-19.008 138.45h-112.39c6.6953-48 16.379-94.48 28.852-138.45zm-153.09 157.5c-5.4883 45.734-8.4375 93.227-8.7773 141.5h-125.02c0.5625-46.348 5.4531-93.855 14.562-141.5zm616.9 583.38h-89.887c14.715-32.559 27.73-67.715 38.852-104.76h102.43c-23.098 56.316-44.691 93.652-51.398 104.76zm-14.793-281.33c5.4883-45.734 8.4375-93.227 8.7773-141.5h125.02c-0.61328 46.285-5.5586 93.789-14.734 141.5zm-84.031-602.43c-10.734-21.98-20.535-39.094-28.215-51.461 35.789 13.43 69.996 30.645 102.2 51.461zm-309.58-77.664c5.1875-0.90234 10.422-1.7227 15.68-2.4727-8.2227 15.477-20.645 41.727-33.953 80.137h-84.914c17.473-34.488 31.863-55.098 36.664-61.637 21.633-6.7148 43.992-12.113 66.523-16.027zm-133.4 96.711c-14.703 32.543-27.723 67.711-38.852 104.79h-102.8c22.492-54.988 43.906-92.496 51.246-104.79zm8.9375 883.76c10.73 21.98 20.527 39.094 28.207 51.457-35.789-13.43-69.992-30.645-102.2-51.457zm126.38 0h81.117v85.477c-14.715-0.25391-29.391-1.1016-43.898-2.5391-5.5664-9.2539-20.531-36.152-37.219-82.938zm201.47 0h84.918c-17.465 34.488-31.852 55.082-36.656 61.617-26.766 8.2969-54.324 14.484-82.199 18.48 8.2305-15.484 20.641-41.719 33.938-80.098zm426.11-460.93h-83.031c-0.55078-46.383-5.3281-93.875-14.23-141.5h75.789c13.41 45.805 20.629 93.324 21.473 141.5zm-111.37-318.05h-37.41c-12.449-31.168-24.633-57.047-34.625-76.656 26.445 23.133 50.543 48.77 72.035 76.656zm-779.11-76.652c-9.9961 19.609-22.176 45.492-34.625 76.656h-37.406c21.492-27.891 45.59-53.527 72.031-76.656zm-86.051 95.703h44.094c-17.141 45.609-30.703 92.078-40.41 138.45l-73.605-0.003906c16.398-49.242 39.887-95.738 69.922-138.45zm-97.348 318.05h83.039c0.60156 46.324 5.4297 93.812 14.398 141.5h-75.965c-13.414-45.809-20.633-93.328-21.473-141.5zm111.4 318.07h37.742c12.648 31.551 25.074 57.758 35.168 77.438-26.797-23.34-51.188-49.238-72.91-77.438zm865.09-19.047h-44.398c17.199-45.637 30.809-92.113 40.559-138.48h73.805c-16.414 49.266-39.91 95.77-69.965 138.48z"/>
 <path d="m984.79 164.86c15.75 5.0508 27.438 13.84 35.73 26.875 8.3203 13.09 13.195 30.691 14.48 52.312 0.30078 5.0273 4.4648 8.9531 9.5039 8.957h0.003906c5.0352 0 9.2031-3.918 9.5078-8.9492 1.3125-21.676 6.1914-39.277 14.504-52.324 8.2891-13.035 19.977-21.824 35.73-26.875 3.9414-1.2656 6.6172-4.9297 6.6172-9.0703 0-4.1367-2.6719-7.8047-6.6133-9.0703-15.754-5.0508-27.441-13.844-35.734-26.883-8.3086-13.039-13.188-30.637-14.5-52.312-0.30469-5.0273-4.4688-8.9492-9.5078-8.9492h-0.003906c-5.0391 0.003906-9.2031 3.9297-9.5039 8.9609-1.2852 21.621-6.1562 39.223-14.48 52.309-8.2891 13.035-19.98 21.828-35.73 26.875-3.9414 1.2656-6.6133 4.9297-6.6133 9.0703-0.007812 4.1445 2.6641 7.8086 6.6094 9.0742z"/>
 <path d="m74.52 180.47c15.742 5.0469 27.43 13.84 35.73 26.879 8.3203 13.062 13.191 30.656 14.48 52.285 0.30078 5.0273 4.4648 8.9531 9.5039 8.957h0.003906c5.0352 0 9.2031-3.918 9.5078-8.9492 1.3125-21.684 6.1914-39.277 14.508-52.305 8.2695-13.023 19.957-21.812 35.727-26.867 3.9414-1.2656 6.6172-4.9297 6.6172-9.0703 0-4.1367-2.6719-7.8047-6.6133-9.0703-15.754-5.0508-27.438-13.844-35.734-26.883-8.3086-13.035-13.188-30.637-14.5-52.312-0.30469-5.0273-4.4688-8.9492-9.5078-8.9492h-0.003907c-5.0391 0.003906-9.2031 3.9297-9.5039 8.957-1.2891 21.625-6.1602 39.223-14.473 52.301-8.3203 13.047-20.008 21.844-35.734 26.887-3.9414 1.2656-6.6133 4.9297-6.6133 9.0703-0.007812 4.1445 2.6641 7.8086 6.6055 9.0703z"/>
 <path d="m193.98 1093.7c-15.75-5.0508-27.438-13.84-35.734-26.883-8.3086-13.039-13.188-30.641-14.5-52.312-0.30469-5.0273-4.4688-8.9492-9.5078-8.9492h-0.003906c-5.0391 0.003907-9.2031 3.9297-9.5039 8.9609-1.2852 21.621-6.1562 39.223-14.473 52.301-8.3203 13.047-20.012 21.844-35.734 26.887-3.9414 1.2656-6.6172 4.9297-6.6172 9.0703 0 4.1367 2.6719 7.8047 6.6133 9.0703 15.727 5.043 27.418 13.84 35.73 26.875 8.3203 13.09 13.195 30.691 14.48 52.312 0.30078 5.0273 4.4648 8.9531 9.5039 8.957h0.003906c5.0352 0 9.2031-3.918 9.5078-8.9492 1.3125-21.68 6.1914-39.281 14.504-52.32 8.2891-13.035 19.98-21.828 35.73-26.875 3.9414-1.2656 6.6133-4.9297 6.6133-9.0703 0-4.1445-2.6719-7.8086-6.6133-9.0742z"/>
</svg>
