<?xml version="1.0" encoding="UTF-8"?>
<svg width="1200pt" height="1200pt" version="1.1" viewBox="0 0 1200 1200" xmlns="http://www.w3.org/2000/svg">
 <path d="m141.52 373.6c0 6.2344 5.0625 11.344 11.344 11.344 6.2344 0 11.344-5.0625 11.344-11.344 0-43.688 35.531-79.266 79.266-79.266 6.2344 0 11.344-5.0625 11.344-11.344 0-6.2344-5.0625-11.344-11.344-11.344-43.688 0-79.266-35.531-79.266-79.266 0-6.2344-5.0625-11.344-11.344-11.344-6.2344 0-11.344 5.0625-11.344 11.344 0 43.688-35.531 79.266-79.266 79.266-6.2344 0-11.344 5.0625-11.344 11.344 0 6.2344 5.0625 11.344 11.344 11.344 43.688 0 79.266 35.578 79.266 79.266zm11.297-134.48c9.7031 18.797 25.125 34.219 43.922 43.922-18.797 9.7031-34.219 25.125-43.922 43.922-9.7031-18.797-25.125-34.219-43.922-43.922 18.797-9.75 34.219-25.125 43.922-43.922z"/>
 <path d="m1137.7 1064.2c-43.688 0-79.266-35.531-79.266-79.266 0-6.2344-5.0625-11.344-11.344-11.344-6.2344 0-11.344 5.0625-11.344 11.344 0 43.688-35.531 79.266-79.266 79.266-6.2344 0-11.344 5.0625-11.344 11.344 0 6.2344 5.0625 11.344 11.344 11.344 43.688 0 79.266 35.531 79.266 79.266 0 6.2344 5.0625 11.344 11.344 11.344 6.2344 0 11.344-5.0625 11.344-11.344 0-43.688 35.531-79.266 79.266-79.266 6.2344 0 11.344-5.0625 11.344-11.344-0.046876-6.2812-5.1094-11.344-11.344-11.344zm-90.562 55.219c-9.7031-18.797-25.125-34.219-43.922-43.922 18.797-9.7031 34.219-25.125 43.922-43.922 9.7031 18.797 25.125 34.219 43.922 43.922-18.797 9.75-34.219 25.125-43.922 43.922z"/>
 <path d="m1022.7 603.19c14.484-15.844 35.344-25.828 58.453-25.828 6.2344 0 11.344-5.0625 11.344-11.344 0-6.2344-5.0625-11.344-11.344-11.344-43.688 0-79.266-35.531-79.266-79.266 0-6.2344-5.0625-11.344-11.344-11.344-6.2344 0-11.344 5.0625-11.344 11.344 0 4.5938-0.42188 9.0469-1.1719 13.453-63.281-114.52-173.21-199.18-304.5-228.61l0.09375-79.125c0-6.2344-5.0625-11.344-11.344-11.344h-79.266l0.046875-135.79c0-6.2344-5.0625-11.344-11.344-11.344-6.2344 0-11.344 5.0625-11.344 11.344v135.84h-79.266c-6.2344 0-11.344 5.0625-11.344 11.344v79.219c-248.58 55.875-410.81 306.14-349.22 561.89-13.172 9.7031-29.391 15.469-46.922 15.469-6.2344 0-11.344 5.0625-11.344 11.344 0 6.2344 5.0625 11.344 11.344 11.344 43.688 0 79.266 35.531 79.266 79.266 0 9.5625 11.156 14.859 18.562 8.625 83.438 141.84 235.31 229.03 400.26 229.03 298.78 0 522.37-280.69 450.98-574.18zm-32.109-81.047c9.7031 18.797 25.125 34.219 43.922 43.922-18.984 9.8438-34.359 25.406-43.922 43.922-9.7031-18.797-25.125-34.219-43.922-43.922 19.031-9.8438 34.312-25.406 43.922-43.922zm22.453 179.76h-124.45c-0.70312-42.75-5.2969-84.562-13.594-124.55h25.031c43.688 0 79.266 35.531 79.266 79.266 0 6.2344 5.0625 11.344 11.344 11.344 6.2344 0 11.344-5.0625 11.344-11.344 0-8.5312 1.3594-16.734 3.8906-24.422 4.1719 22.875 6.6094 46.219 7.1719 69.703zm-102.61-271.74c22.172 26.344 41.344 55.453 57 86.953-14.016 22.547-39 37.594-67.406 37.594h-30.141c-11.016-44.578-26.672-86.531-46.641-124.55zm-327.37 407.58v-33.984c0-43.688 35.531-79.266 79.266-79.266h33.938c-0.28125 38.812-2.0625 76.781-5.1562 113.2zm105.84 22.641c-4.6406 44.625-11.391 86.578-20.062 124.55l-85.781-0.046875v-124.55zm-22.734-430.22c9.2344 37.688 16.453 79.688 21.516 124.55h-104.62v-124.55zm-83.109-22.641v-133.69c38.906 14.672 65.953 93.75 77.156 133.69zm106.97 169.82c3.75 39.844 5.9062 81.656 6.1875 124.55h-33.938c-43.688 0-79.266-35.531-79.266-79.266v-45.281zm-0.60937-147.19h108c20.578 36.891 37.266 78.891 48.984 124.55h-135.98c-4.9219-44.672-12-86.625-21-124.55zm22.219 430.22h137.58c-10.734 45.375-26.25 87.328-45.656 124.55h-111.52c8.4844-38.156 15.047-80.109 19.594-124.55zm2.1094-22.641c3.0938-36.469 4.8281-74.438 5.1094-113.2h147.1c-0.65625 39.188-4.7812 77.156-11.859 113.2zm5.1094-135.84c-0.32813-42.797-2.3906-84.609-6.0938-124.55h139.03c8.5312 39.375 13.453 81.188 14.156 124.55zm171.14-294.37h-79.547c-26.25-43.922-60.328-84.656-102.84-114.14 69.094 22.547 131.9 61.875 182.39 114.14zm-106.08 0h-100.22c-11.25-41.672-29.719-95.156-57.469-128.26 61.359 17.344 116.06 63.281 157.69 128.26zm-291.42-215.06h158.48v63.375c-26.016-4.5-52.5-6.7969-79.266-6.7969-27 0-53.484 2.3438-79.266 6.7969zm-135.84 384.89c30.891 0 57.656 17.766 70.734 43.594-1.6406 26.484-2.5312 53.625-2.7188 80.953h-147.14c0.75-43.359 5.6719-85.125 14.156-124.55zm-59.625-22.641c11.719-45.656 28.406-87.656 48.984-124.55h108c-2.5781 10.922-5.0156 22.266-7.3125 34.031-6 0.28125-10.828 5.2031-10.828 11.25 0 43.688-35.531 79.266-79.266 79.266zm127.55 169.82c0.28125 38.766 2.0156 76.734 5.1094 113.2h-140.39c-7.0781-36.047-11.203-74.016-11.859-113.2zm7.2188 135.84c4.5469 44.438 11.109 86.391 19.594 124.55l-111.52-0.046875c-19.406-37.219-34.922-79.172-45.656-124.55zm-28.5-294.37c18.797-9.7031 34.219-25.125 43.922-43.922 9.7031 18.797 25.125 34.219 43.922 43.922-18.797 9.7031-34.219 25.125-43.922 43.922-9.75-18.797-25.125-34.172-43.922-43.922zm44.578 101.86c5.9062-0.375 10.641-5.25 10.641-11.25 0-43.688 35.531-79.266 79.266-79.266h22.641v45.281c0 43.688-35.531 79.266-79.266 79.266h-33.891c0.09375-11.391 0.28125-22.781 0.60938-34.031zm89.906-113.16c-34.453 0-63.844-22.125-74.719-52.922 4.0781-25.547 8.9062-49.5 14.344-71.625h83.016v124.55zm-54.422-147.19c20.812-74.156 48.656-123.24 77.062-133.74v133.74zm34.406-128.39c-22.594 26.672-42.422 70.406-58.078 128.39h-100.17c41.766-65.156 96.656-111.19 158.26-128.39zm-81.094 13.734c-42.75 29.438-77.109 70.312-103.69 114.7h-79.547c50.109-52.172 112.83-92.062 183.24-114.7zm-203.53 137.29h87.094c-19.969 38.016-35.672 79.969-46.641 124.55h-113.95c17.625-45.656 42.609-87.656 73.5-124.55zm-81.516 147.19h116.81c-8.2969 39.938-12.891 81.75-13.594 124.55h-124.5c1.125-43.359 8.5312-85.172 21.281-124.55zm114.56 260.39h-11.438c-43.688 0-79.266-35.531-79.266-79.266 0-6.2344-5.0625-11.344-11.344-11.344-6.2344 0-11.344 5.0625-11.344 11.344 0 16.359-4.9688 31.547-13.5 44.203-5.2969-25.641-8.2969-51.797-8.9531-78.141h124.45c0.65625 38.719 4.5469 76.688 11.391 113.2zm-102 55.219c-9.7031-18.797-25.125-34.219-43.922-43.922 19.078-9.8906 34.406-25.5 43.922-43.922 9.7031 18.797 25.125 34.219 43.922 43.922-18.797 9.75-34.219 25.125-43.922 43.922zm15.047 22.594c10.219-31.969 40.219-55.172 75.516-55.172h16.172c10.078 44.391 24.703 86.297 43.594 124.55l-91.031-0.046875c-16.641-21.422-31.453-44.578-44.25-69.328zm63.094 91.969h84.094c27.422 48.938 64.266 94.547 110.91 126.47-75.094-23.812-142.4-67.359-195-126.47zm110.2 0h104.25c11.391 45.047 30.703 104.16 60.422 139.55-64.828-18.281-122.26-68.578-164.68-139.55zm207.89 145.03c-41.156-15.516-69.047-102.33-80.25-145.03h80.25zm0-167.68h-85.781c-8.7188-37.922-15.422-79.875-20.062-124.55l105.84 0.046875zm0-147.14h-108c-3.1406-36.422-4.875-74.391-5.1562-113.2h33.891c43.688 0 79.266 35.531 79.266 79.266zm-32.625-124.55c18.797-9.7031 34.219-25.125 43.922-43.922 9.7031 18.797 25.125 34.219 43.922 43.922-18.797 9.7031-34.219 25.125-43.922 43.922-9.7031-18.797-25.125-34.219-43.922-43.922zm55.266 439.36v-145.03h80.25c-11.203 42.656-39.094 129.52-80.25 145.03zm103.59-145.03h104.25c-42.375 70.969-99.797 121.26-164.68 139.55 29.719-35.391 49.031-94.5 60.422-139.55zm20.156 126c45.984-31.688 82.688-76.875 110.25-126h83.484c-51.75 57.703-118.36 101.72-193.74 126zm212.68-148.64h-90.516c18.891-38.203 33.516-80.156 43.594-124.55h115.45c-16.125 45.375-39.375 87.375-68.531 124.55zm75.844-147.14h-118.08c6.8906-36.516 10.734-74.484 11.344-113.2h124.5c-0.98438 39.188-7.125 77.156-17.766 113.2z"/>
</svg>
