<?xml version="1.0" encoding="UTF-8"?>
<svg width="1200pt" height="1200pt" version="1.1" viewBox="0 0 1200 1200" xmlns="http://www.w3.org/2000/svg">
 <path d="m725.29 551.11c0-10.172-8.2031-18.375-18.375-18.375-166.6 0-302.02-160.45-302.02-357.79 0-10.172-8.2031-18.375-18.375-18.375s-18.375 8.2031-18.375 18.375c0 197.34-135.56 357.79-302.02 357.79-10.172 0-18.375 8.2031-18.375 18.375s8.2031 18.375 18.375 18.375c166.45 0 302.02 160.45 302.02 357.79 0 10.172 8.2031 18.375 18.375 18.375s18.375-8.2031 18.375-18.375c0-197.34 135.47-357.79 302.02-357.79 10.125 0 18.375-8.2031 18.375-18.375z"/>
 <path d="m657.98 217.08c60.422 0 109.59 59.203 109.59 131.9 0 10.172 8.2031 18.375 18.375 18.375s18.375-8.2031 18.375-18.375c0-72.703 49.172-131.9 109.59-131.9 10.172 0 18.375-8.2031 18.375-18.375s-8.2031-18.375-18.375-18.375c-60.422 0-109.59-59.203-109.59-131.9 0-10.172-8.2031-18.375-18.375-18.375s-18.375 8.2031-18.375 18.375c0 72.703-49.172 131.9-109.59 131.9-10.172 0-18.375 8.2031-18.375 18.375 0 10.125 8.2031 18.375 18.375 18.375z"/>
 <path d="m1134 897c-100.78 0-182.76-97.688-182.76-217.69 0-10.172-8.2031-18.375-18.375-18.375s-18.375 8.2031-18.375 18.375c0 120-81.984 217.69-182.76 217.69-10.172 0-18.375 8.3438-18.375 18.375 0 10.172 8.2031 18.375 18.375 18.375 100.78 0 182.76 97.688 182.76 217.82 0 10.172 8.2031 18.375 18.375 18.375s18.375-8.2031 18.375-18.375c0-120.14 81.984-217.82 182.76-217.82 10.172 0 18.375-8.2031 18.375-18.375 0-10.031-8.2031-18.375-18.375-18.375z"/>
</svg>
