<?xml version="1.0" encoding="UTF-8"?>
<svg width="1200pt" height="1200pt" version="1.1" viewBox="0 0 1200 1200" xmlns="http://www.w3.org/2000/svg">
 <path d="m988.4 211.64c-48.703-48.703-112.59-73.125-176.44-73.125-63.891 0-127.74 24.422-176.53 73.125-19.781 19.781-35.484 42.141-47.297 65.906-0.046875 0.09375-0.09375 0.23438-0.09375 0.28125-0.23438 0.46875-0.46875 0.89062-0.65625 1.3594 0 0.09375-0.046875 0.1875-0.09375 0.28125-16.594 34.219-24.938 71.438-24.938 108.66 0 4.4531 0.09375 8.9062 0.32812 13.312v0.046875c0.32812 6.1406 0.89062 12.328 1.7344 18.469v0.046875c0.65625 5.7188 1.6406 11.438 2.7656 17.109 0.23438 1.125 0.51562 2.25 0.79688 3.4219 0.28125 1.3594 0.5625 2.7188 0.89062 4.0312 0.46875 2.0156 0.9375 4.125 1.4531 6.1406 0.046875 0.28125 0.1875 0.5625 0.23438 0.84375 0.5625 2.2031 1.1719 4.4062 1.875 6.5625 0.1875 0.75 0.375 1.4531 0.60938 2.2031 0.32812 1.4062 0.79688 2.7656 1.3125 4.1719 0.09375 0.375 0.23438 0.79688 0.375 1.1719 0.046875 0.1875 0.09375 0.32812 0.1875 0.51562 0.84375 2.5781 1.6875 5.1094 2.625 7.6406 0 0.09375 0.046875 0.23438 0.09375 0.28125 1.0781 3.0469 2.25 6 3.4688 9 1.2188 3.0938 2.5312 6.1406 3.9375 9.1875s2.8125 6 4.3125 8.9531c0.23438 0.375 0.375 0.79688 0.60938 1.1719 1.2188 2.4375 2.5312 4.8281 3.8906 7.2656 0.09375 0.23438 0.23438 0.375 0.32812 0.60938 0.75 1.2188 1.4062 2.4844 2.1562 3.6562 0.1875 0.28125 0.28125 0.51562 0.46875 0.79688 1.0312 1.7344 2.0625 3.4219 3.1406 5.1094 0.51562 0.84375 1.0781 1.7344 1.6406 2.5781 1.4062 2.25 2.8594 4.5 4.4531 6.75 2.625 3.8906 5.4375 7.6875 8.3906 11.484 0.79688 1.0312 1.5938 2.0156 2.3438 3 0.5625 0.75 1.1719 1.4531 1.7812 2.2031 0.1875 0.28125 0.375 0.51562 0.60938 0.79688 0.79688 1.0312 1.6406 2.0156 2.5312 3 1.4062 1.7344 2.8594 3.4219 4.4531 5.1094 0.75 0.89062 1.5 1.7344 2.2969 2.5781l0.1875 0.1875c2.2031 2.4375 4.5 4.7812 6.7969 7.0781 2.0625 2.0625 4.2188 4.125 6.375 6.1406 0.9375 0.89062 1.9688 1.875 3 2.7188 1.5938 1.4531 3.1406 2.8594 4.7812 4.2188 1.4062 1.2188 2.8594 2.4844 4.3125 3.6562 0.32812 0.28125 0.60938 0.5625 0.9375 0.79688 1.5 1.2188 3 2.4375 4.5 3.5625 1.4531 1.1719 3 2.2969 4.4531 3.375 2.4375 1.875 4.875 3.6094 7.4062 5.2969 0.046875 0.046875 0.1875 0.09375 0.23438 0.09375 1.7344 1.2188 3.4219 2.3438 5.1562 3.4219 0.65625 0.51562 1.3125 0.89062 1.9688 1.3125 0.65625 0.46875 1.4062 0.89062 2.1562 1.3594 0 0 0.046875 0 0.046875 0.046875 0.23438 0.1875 0.51562 0.28125 0.75 0.46875 2.2031 1.3125 4.3125 2.625 6.5625 3.9375 3.1875 1.7812 6.4688 3.5625 9.7969 5.25 0.51562 0.28125 1.0312 0.51562 1.5 0.79688 0.28125 0.1875 0.5625 0.28125 0.84375 0.375 1.2188 0.65625 2.4844 1.2188 3.75 1.875 1.2188 0.60938 2.5312 1.1719 3.75 1.7812 2.2031 1.0312 4.4531 2.0156 6.7031 3 0.375 0.1875 0.84375 0.32812 1.3125 0.51562l13.875 5.3438h0.046875c0.23438 0.09375 0.51562 0.1875 0.75 0.28125 1.5 0.51562 3.0938 1.0781 4.6875 1.5938l5.7188 1.7344c0.32812 0.09375 0.65625 0.1875 1.0312 0.28125l13.172 3.4219c2.625 0.60938 5.2969 1.2188 7.9219 1.7344 5.6719 1.125 11.438 2.0625 17.156 2.7656h0.046875c6.0938 0.84375 12.281 1.4062 18.375 1.7344h0.046875c4.4531 0.23438 8.9062 0.32812 13.312 0.32812 37.688 0 75.375-8.4844 109.97-25.5 24-11.766 46.5-27.656 66.469-47.625 48.75-48.703 73.125-112.59 73.125-176.44 0.09375-64.031-24.281-127.92-73.031-176.63zm-10.875 59.531c-92.344-92.297-242.06-92.297-334.4 0-10.406 10.453-19.688 21.656-27.797 33.375 11.203 67.781 47.203 130.69 96.516 180 55.875 55.781 128.58 94.172 201.66 102.38-7.2656 3.75-14.719 7.0781-22.406 9.9375-8.2031 3.1406-16.594 5.8125-25.078 7.875-45.281-12-89.109-33.797-128.16-62.953-0.46875-0.32812-0.89062-0.65625-1.3594-1.0312-0.28125-0.23438-0.5625-0.375-0.79688-0.60938-3-2.25-5.9531-4.5469-8.8125-6.8438-4.6875-3.7031-9.2344-7.5469-13.734-11.531-2.7188-2.2969-5.3438-4.6875-7.9688-7.125-0.09375-0.046875-0.23438-0.1875-0.32812-0.28125-1.6406-1.5-3.2812-3.0469-4.875-4.6875-2.25-2.0625-4.5-4.2656-6.75-6.5156-2.9062-2.9062-5.8125-5.8594-8.625-8.9062-2.5312-2.625-4.9688-5.3438-7.4062-8.1094-0.51562-0.5625-1.0312-1.125-1.5-1.7344-2.5312-2.8125-5.0156-5.7188-7.4062-8.6719-2.8125-3.375-5.5781-6.7969-8.25-10.219-2.3438-3.0469-4.6875-6.1406-6.9375-9.2344-0.09375-0.09375-0.1875-0.23438-0.28125-0.32812-2.2969-3.1875-4.5938-6.4219-6.8438-9.75-2.2969-3.375-4.5469-6.7969-6.75-10.312-2.2031-3.375-4.2656-6.7969-6.375-10.219-1.7344-3-3.4688-5.9531-5.1094-8.9531-0.84375-1.5-1.6875-3.0469-2.4844-4.5469-0.51562-0.9375-1.0312-1.9219-1.5-2.8594-1.9219-3.6094-3.75-7.2188-5.5312-10.875-1.125-2.3438-2.25-4.7344-3.3281-7.0781-0.65625-1.4062-1.3125-2.7656-1.875-4.1719-0.79688-1.6875-1.5-3.4219-2.25-5.1562-0.84375-2.0156-1.6875-4.0312-2.5312-6.1406-2.0156-5.1094-3.9375-10.219-5.7188-15.469-1.5-4.4531-3-8.9062-4.2656-13.406-0.60938-1.9688-1.1719-3.9844-1.6875-5.9531-0.46875-1.5938-0.89062-3.1875-1.3125-4.7812-0.09375-0.32812-0.1875-0.75-0.28125-1.0781v-0.046875c2.1562-8.6719 4.7344-17.25 7.9219-25.641 2.8594-7.7812 6.2344-15.422 10.078-22.875v-0.046875c5.25-10.172 11.203-19.969 18.047-29.438 1.6875-2.3438 3.4688-4.6875 5.2969-6.9844 1.7812-2.2969 3.7031-4.5938 5.625-6.8438s3.8906-4.4531 5.9062-6.6562c1.9688-2.2031 4.0312-4.3125 6.1875-6.4688 43.594-43.594 100.73-65.438 157.87-65.438 57.141 0 114.23 21.844 157.82 65.438 2.25 2.25 4.5 4.5469 6.6562 6.9375 7.875 8.5312 14.953 17.625 21.281 27 0.79687 1.3125 1.6406 2.5312 2.4844 3.8438 1.7344 2.7188 3.375 5.3906 4.9688 8.1562 1.125 1.875 2.2031 3.7031 3.1406 5.625 1.6875 3.0469 3.1875 6.0938 4.7344 9.1875 1.3125 2.5781 2.4844 5.25 3.6094 7.875 0.32812 0.75 0.60937 1.4062 0.89062 2.1562 0.84375 1.875 1.6406 3.7031 2.2969 5.5781 0.32812 0.84375 0.65625 1.7344 1.0312 2.625 0.89062 2.2969 1.7344 4.5938 2.4844 6.9844 0.84375 2.4375 1.6406 4.875 2.3438 7.3594 0.28125 0.79688 0.51563 1.5938 0.75 2.3438 0.65625 2.2031 1.2188 4.4531 1.7812 6.7031 0.23438 0.79688 0.46875 1.6406 0.60938 2.4375 0.60937 2.3438 1.125 4.7812 1.6406 7.2188 0.375 1.875 0.79688 3.75 1.0781 5.6719 0.09375 0.28125 0.1875 0.5625 0.1875 0.84375 0.32812 1.4531 0.5625 2.9062 0.75 4.3125 0.375 2.25 0.75 4.5469 1.0312 6.7969-11.484-32.438-30.094-62.812-55.969-88.688zm-226.74 387.84c-0.75-0.1875-1.4531-0.32812-2.2031-0.51562l-12.375-3.1875-2.5312-0.65625c-0.32813-0.09375-0.65625-0.23438-1.0781-0.32812l-5.7188-1.7344c-1.5938-0.51562-2.7656-0.89062-3.9375-1.3125 0 0-2.2031-0.79688-2.5781-0.89062l-14.016-5.3438c-0.60937-0.23438-1.1719-0.46875-1.7812-0.75-0.51562-0.1875-1.0312-0.375-1.5938-0.60938-1.7812-0.79688-3.4688-1.5938-5.1562-2.3438-0.09375 0-1.875-0.79688-2.0625-0.89062-15.141-6.9844-29.484-15.188-42.656-24.469-1.2188-0.84375-2.7656-1.875-4.2188-3-0.75-0.51562-1.4062-1.0312-2.0625-1.5938-1.5938-1.125-3.1406-2.2969-4.6875-3.5625-1.5-1.125-3.0469-2.2969-4.5469-3.5625-0.5625-0.46875-1.1719-0.89062-1.7344-1.4062-1.5-1.3125-3.0469-2.5781-4.5469-3.8906-1.7344-1.4531-3.4688-3-5.1562-4.5469-1.2188-1.0781-2.4844-2.2031-3.6562-3.3281-2.2031-2.0625-4.5469-4.3125-6.8438-6.6562-2.625-2.625-5.2969-5.3438-7.8281-8.1562-3.1406-3.375-6.4688-7.125-9.6562-11.156-2.1562-2.4375-4.0312-4.875-5.9531-7.3594l-1.7344-2.25c-2.25-2.9062-4.4062-5.9062-6.4688-8.8125-0.09375-0.1875-0.89062-1.3125-1.125-1.6875-1.6875-2.3438-3.375-4.9688-5.0156-7.5938-0.65625-0.9375-1.3125-1.9688-1.9219-3.0469-1.2188-1.9219-2.3438-3.8438-3.4688-5.7188-0.1875-0.23438-2.7188-4.6875-2.7188-4.6875s-0.46875-0.75-0.60937-1.0781c-1.3594-2.4844-2.7188-4.9688-3.9375-7.3594-0.1875-0.32812-0.65625-1.2188-0.75-1.4062-1.3125-2.5312-2.5781-5.1562-3.8438-7.8281l-317.21 358.87c20.016 31.125 57.422 77.672 115.22 106.88l-21.703 18.234c-53.531-29.859-89.953-72.938-111.47-104.72l-49.172 55.594c-1.6875-3.6094-3.3281-7.3125-4.8281-11.062-0.51562-1.4062-1.0781-2.8125-1.5938-4.2188-1.3125-3.4688-2.5312-7.0781-3.6562-10.781l44.531-53.109 18.188-21.656 315.84-376.4c-0.51562-1.6875-1.0312-3.4219-1.4531-5.1094-0.09375-0.51562-0.84375-3.375-0.84375-3.375-0.28125-1.3125-0.60938-2.5781-0.89062-3.8438-0.28125-1.1719-0.51562-2.3438-0.79688-3.5625-0.32812-1.3125-0.60938-2.5781-0.84375-3.8438 0 0-0.32812-1.3594-0.32812-1.5938-0.79688-3.8906-1.4531-7.5938-1.9688-11.203l-396.05 471.98c-3.1875 3.75-3.8906 8.8125-2.25 13.125 10.031 36.469 27.469 66.422 51.75 90.375 24.422 24.141 55.594 41.953 93.047 54 4.4531 1.4062 9.0938 0.32812 12.422-2.4844l0.046875 0.046875 471.98-396c-3.5625-0.5625-7.2656-1.2188-11.156-2.0156-2.2031-0.42188-4.4531-0.89062-6.6562-1.4062zm-186.37-58.641c0.60938 0.1875 1.3125 0.32812 1.9219 0.51562 0.14062 0.046875 0.28125 0.09375 0.42188 0.14062-0.79688-0.23438-1.5938-0.46875-2.3438-0.65625zm-25.172 0.51562c0.60938-0.1875 1.3125-0.32812 1.9219-0.51562h0.046875c-0.98438 0.23438-1.9688 0.51562-2.9531 0.79688 0.28125-0.09375 0.60938-0.1875 0.98438-0.28125zm61.781 46.453c0 3.0938-0.28125 6.1875-0.89062 9.2344-0.28125 1.5-0.65625 3.0469-1.125 4.5469-2.2031 7.5-6.2344 14.438-12.047 20.297l-50.812 50.812c-9.4688 9.375-21.844 14.109-34.219 14.109s-24.75-4.7344-34.219-14.109c-9.3281-9.375-14.062-21.75-14.062-34.125v-0.046875c0-12.375 4.7344-24.75 14.062-34.125l50.812-50.812c2.3438-2.3438 4.875-4.4531 7.5938-6.1875 2.0156-1.3594 4.125-2.5312 6.2344-3.4688 3.0938-1.4062 6.2812-2.4844 9.5156-3.2344 0.14062-0.046875 0.32812-0.09375 0.46875-0.09375 0.14062-0.046875 0.23438-0.046875 0.32812-0.09375 1.125-0.23438 2.25-0.375 3.375-0.5625 0.84375-0.14062 1.6406-0.23438 2.4375-0.28125h0.14062c1.3594-0.09375 2.7188-0.23438 4.0781-0.23438s2.7188 0.09375 4.0781 0.23438h0.14062c0.79688 0.046875 1.5938 0.14062 2.4375 0.28125 1.125 0.14062 2.25 0.32812 3.375 0.5625 0.09375 0.046875 0.23438 0.046875 0.32812 0.09375 0.1875 0 0.32812 0.09375 0.46875 0.09375 1.2656 0.28125 2.4844 0.65625 3.75 1.0312 0.60938 0.1875 1.2188 0.375 1.7812 0.60938 1.3594 0.46875 2.6719 0.98438 3.9844 1.5938-1.1719-0.5625-2.3906-0.98438-3.5625-1.4531 0.375 0.14062 0.75 0.23438 1.125 0.375 0.79688 0.32812 1.6406 0.65625 2.4844 1.0781 2.1562 0.9375 4.2188 2.1562 6.2344 3.4688 2.7188 1.7344 5.25 3.8438 7.5938 6.1875 1.1719 1.1719 2.25 2.3438 3.2812 3.6562 1.0312 1.2188 1.9688 2.5312 2.8594 3.8906 0.84375 1.3125 1.6875 2.7188 2.4375 4.125 0.75 1.3594 1.4062 2.8125 1.9688 4.2656 0 0 0.046875 0 0.046875 0.046875 0.5625 1.4531 1.0781 2.9062 1.5 4.4062 1.3125 4.5 1.9688 9.1875 1.9688 13.781zm-82.453 34.078c5.625 5.625 12.281 9.5625 19.359 11.812l-20.344 20.344c-4.2656 4.2656-9.9375 6.4219-15.562 6.4219s-11.297-2.1562-15.562-6.4219-6.4219-9.8906-6.4219-15.562c0-5.625 2.1562-11.25 6.4219-15.516l20.438-20.438c2.1094 7.0781 6.0469 13.734 11.672 19.359zm54.609-42.422c1.0781 2.625 1.6406 5.3906 1.6406 8.2031v0.046875c0 2.7656-0.5625 5.5781-1.6406 8.2031-1.125 2.625-2.7188 5.1094-4.875 7.3125-4.2656 4.2656-9.8906 6.4688-15.516 6.4688s-11.25-2.2031-15.562-6.4688c-4.2656-4.3125-6.4688-9.9375-6.4688-15.516 0-5.625 2.2031-11.25 6.4688-15.562 1.3125-1.2188 2.7188-2.3438 4.1719-3.1875 1.0312-0.65625 2.0625-1.1719 3.1406-1.6406 0.60938-0.28125 1.3125-0.51562 1.9688-0.65625 0.51562-0.1875 1.0781-0.28125 1.5938-0.375 1.5938-0.375 3.1406-0.5625 4.7344-0.5625 2.8125 0 5.625 0.5625 8.25 1.6406 1.3594 0.5625 2.5781 1.2188 3.8438 2.0156 1.2188 0.79688 2.3438 1.7344 3.4219 2.8125 2.1562 2.1094 3.7031 4.6406 4.8281 7.2656z"/>
</svg>
