<?xml version="1.0" encoding="UTF-8"?>
<svg width="1200pt" height="1200pt" version="1.1" viewBox="0 0 1200 1200" xmlns="http://www.w3.org/2000/svg">
 <path d="m1058.7 1032.2-38.438-38.438 24.234-24.234c7.3125-7.3125 7.3125-19.172 0-26.531l-67.031-67.031c4.9219-7.5469 9.6562-15.281 13.969-23.203 3.5156-6.4688 2.9531-14.391-1.4531-20.25l-390.52-520.69c0.14062-3.9375 0.51562-7.8281 0.51562-11.812 0-75.984-28.594-145.22-75.328-198.14l13.594-13.594c7.3125-7.3125 7.3125-19.172 0-26.531-7.3125-7.3125-19.172-7.3125-26.531 0l-13.594 13.594c-52.922-46.734-122.16-75.328-198.14-75.328-165.42 0-300 134.58-300 300 0 75.984 28.594 145.22 75.328 198.14l-13.594 13.594c-7.3125 7.3125-7.3125 19.172 0 26.531 3.6562 3.6562 8.4375 5.4844 13.266 5.4844 4.7812 0 9.6094-1.8281 13.266-5.4844l13.594-13.594c52.922 46.734 122.16 75.328 198.14 75.328 3.9844 0 7.9219-0.32812 11.859-0.46875l520.64 390.47c3.3281 2.4844 7.2656 3.75 11.25 3.75 3.0938 0 6.1875-0.75 9-2.2969 7.9219-4.3594 15.656-9.0469 23.203-13.969l67.031 67.031c3.6562 3.6562 8.4375 5.4844 13.266 5.4844 4.7812 0 9.6094-1.8281 13.266-5.4844l24.234-24.234 38.438 38.438c11.484 11.484 17.812 26.766 17.812 42.984 0 33.516-27.281 60.797-60.797 60.797-16.219 0-31.5-6.3281-42.984-17.812l-154.82-154.82c-16.031-16.031-37.406-24.891-60.141-24.891-22.688 0-44.062 8.8594-60.141 24.891-33.188 33.188-33.188 87.094 0 120.28l84.375 84.375c7.3125 7.3125 19.172 7.3125 26.531 0 7.3125-7.3125 7.3125-19.172 0-26.531l-84.375-84.375c-9-9-13.922-20.906-13.922-33.609s4.9688-24.609 13.922-33.609c18-17.953 49.266-17.953 67.219 0l154.82 154.82c18.562 18.562 43.266 28.781 69.516 28.781 54.188 0 98.297-44.109 98.297-98.297 0-26.25-10.219-50.953-28.781-69.516zm-1021.2-732.19c0-144.74 117.75-262.5 262.5-262.5 65.625 0 125.58 24.375 171.66 64.359l-369.79 369.79c-39.938-46.078-64.359-106.03-64.359-171.66zm90.844 198.14 369.79-369.79c39.938 46.078 64.359 106.03 64.359 171.66 0 3.8438-0.32812 7.6406-0.46875 11.484l-250.6 250.6c-3.7969 0.1875-7.5938 0.46875-11.438 0.46875-65.625 0-125.58-24.375-171.66-64.359zm450.89-150.84 260.29 347.06c-19.125 28.641-40.922 55.547-65.25 79.875-24.328 24.328-51.234 46.125-79.875 65.25l-347.06-260.29 231.94-231.94zm265.87 605.29-119.02-89.25c26.625-18.703 51.703-39.609 74.672-62.578s43.875-48.047 62.578-74.625l89.25 119.06c-13.125 21.938-28.969 42.188-47.109 60.375-18.141 18.141-38.438 33.938-60.375 47.109zm111.14 52.125-49.828-49.828c8.8594-7.2656 17.438-14.812 25.594-22.922 8.1094-8.1094 15.656-16.734 22.922-25.594l49.828 49.828z"/>
 <path d="m438.66 901.55c-47.203-20.391-83.156-60.188-98.719-109.17l-3.375-10.547c-2.4844-7.7812-9.7031-13.078-17.859-13.078s-15.375 5.2969-17.859 13.078l-3.375 10.547c-15.562 48.984-51.516 88.781-98.719 109.17-6.8438 2.9531-11.344 9.75-11.344 17.203 0 7.5 4.4531 14.25 11.344 17.203 47.203 20.391 83.156 60.188 98.719 109.17l3.375 10.547c2.4844 7.7812 9.7031 13.078 17.859 13.078s15.375-5.2969 17.859-13.078l3.375-10.547c15.562-48.984 51.516-88.781 98.719-109.17 6.8438-2.9531 11.344-9.75 11.344-17.203 0-7.5-4.4531-14.25-11.344-17.203zm-119.91 97.406c-17.062-32.531-42.188-60.141-72.984-80.203 30.797-20.062 55.922-47.672 72.984-80.203 17.062 32.531 42.188 60.141 72.984 80.203-30.797 20.062-55.922 47.672-72.984 80.203z"/>
 <path d="m686.34 167.21c47.203 20.344 83.156 60.141 98.719 109.17l3.375 10.547c2.4844 7.7812 9.7031 13.078 17.859 13.078s15.375-5.2969 17.859-13.078l3.375-10.547c15.562-48.984 51.516-88.781 98.719-109.17 6.8438-2.9531 11.344-9.75 11.344-17.203 0-7.5-4.4531-14.25-11.344-17.203-47.203-20.344-83.156-60.141-98.719-109.17l-3.375-10.547c-2.4844-7.7812-9.7031-13.078-17.859-13.078s-15.375 5.2969-17.859 13.078l-3.375 10.547c-15.562 48.984-51.516 88.781-98.719 109.17-6.8438 2.9531-11.344 9.75-11.344 17.203 0 7.5 4.4531 14.25 11.344 17.203zm119.91-97.406c17.062 32.531 42.188 60.141 72.984 80.203-30.797 20.062-55.922 47.672-72.984 80.203-17.062-32.531-42.188-60.141-72.984-80.203 30.797-20.062 55.922-47.672 72.984-80.203z"/>
 <path d="m669.52 567.98-56.25-56.25c-27.984-27.984-73.547-27.984-101.53 0s-27.984 73.5 0 101.53l56.25 56.25c13.969 13.969 32.391 21 50.766 21s36.75-6.9844 50.766-21c27.984-27.984 27.984-73.5 0-101.53zm-26.531 75c-13.359 13.359-35.109 13.359-48.469 0l-56.25-56.25c-13.359-13.359-13.359-35.109 0-48.469 6.6562-6.6562 15.469-10.031 24.234-10.031s17.578 3.3281 24.234 10.031l56.25 56.25c13.359 13.359 13.359 35.109 0 48.469z"/>
</svg>
