<?xml version="1.0" encoding="UTF-8"?>
<svg width="1200pt" height="1200pt" version="1.1" viewBox="0 0 1200 1200" xmlns="http://www.w3.org/2000/svg">
 <path d="m731.88 56.195c-5.8398 0.046876-11.766 0.83984-17.652 2.418-37.668 10.086-60.305 49.277-50.207 86.938 10.098 37.66 49.305 60.293 86.977 50.207 37.668-10.086 60.305-49.277 50.207-86.938-8.5195-31.777-37.766-52.871-69.324-52.625zm-207.9 25.047c-5.7109 0.16797-11.039 2.9297-14.465 7.5078-2.9648 3.957-4.2461 8.9219-3.5664 13.82 0.67969 4.8945 3.2656 9.3281 7.1953 12.328 29.648 22.383 47.883 66.145 50.098 122.64 2.2109 56.5-11.68 124.49-42.625 191.12-20.809 44.805-47.797 85.445-77.785 118.1-22.879-19.09-44.582-35.504-64.195-48.633-20.863-13.965-39.277-24.359-55.516-30.25-8.1211-2.9453-15.758-4.8398-23.805-4.9805-8.043-0.13281-17.691 2.0586-24.758 9.1172-0.28516 0.30469-0.56641 0.63672-0.87891 0.95312h-0.003906c-0.046876 0.050782-0.09375 0.097657-0.14063 0.14844-4.0234 4.5273-6.2773 9.8711-7.3242 15.195l-107.48 255.5v0.003906c-0.074219 0.17578-0.14453 0.35547-0.21094 0.53906l-91.371 217.23c-0.33594 0.6875-0.62891 1.3984-0.87891 2.1211l-64.82 154.1c-1.9258 4.6094-1.9336 9.8008-0.019531 14.414 1.9141 4.6172 5.5938 8.2773 10.215 10.168 4.625 1.8945 9.8125 1.8672 14.414-0.082031l238.15-100.05c0.46875-0.17969 0.93359-0.375 1.3867-0.58984l277.26-116.49h0.039063c0.023437-0.011718 0.046875-0.023437 0.070313-0.035156l112.79-47.387c5.8242-1.1094 11.727-3.6016 16.477-8.3516 7.0664-7.0586 9.2578-16.715 9.1172-24.758-0.14062-8.043-2.0352-15.652-4.9805-23.766-5.8945-16.23-16.312-34.633-30.285-55.48-9.3594-13.961-20.414-29.004-32.887-44.75 32.969-30.691 74.293-58.34 120.01-79.539 66.684-30.926 134.73-44.84 191.27-42.629 56.547 2.2109 100.25 20.473 122.64 50.098v-0.003906c3.0078 3.9688 7.4688 6.5742 12.402 7.2461 4.9336 0.67578 9.9297-0.64062 13.891-3.6562 3.9883-2.9883 6.625-7.4375 7.3242-12.371 0.70312-4.9336-0.58984-9.9414-3.5898-13.922-31.773-42.031-87.379-62.398-151.14-64.895-63.754-2.4961-137.01 12.867-208.59 46.07-48.398 22.445-92.324 51.41-128.21 84.523-19.59-22.879-41.672-46.773-65.773-70.863-17.598-17.586-35.109-34.102-52.184-49.363 32.648-35.652 61.195-79.145 83.387-126.93 33.227-71.539 48.602-144.73 46.105-208.45-2.4961-63.719-22.871-119.24-64.93-150.99l0.003906-0.003906c-3.4023-2.5625-7.5703-3.8945-11.828-3.7695zm208.38 12.414c14.996-0.21094 28.539 9.6133 32.629 24.867 4.8477 18.074-5.5898 36.168-23.695 41.016-18.105 4.8477-36.207-5.6172-41.051-23.695-4.8477-18.074 5.5898-36.168 23.695-41.016 2.8281-0.75391 5.6484-1.1328 8.4219-1.1719zm-332.88 66.504c-5-0.019531-9.8008 1.957-13.332 5.4922-3.5352 3.5352-5.5117 8.3359-5.4922 13.332 0 43.418-34.715 78.188-78.188 78.188-4.9961-0.019531-9.7969 1.957-13.332 5.4922-3.5352 3.5352-5.5117 8.332-5.4922 13.332 0.011719 4.9766 2 9.75 5.5312 13.258 3.5312 3.5117 8.3125 5.4727 13.293 5.4531 43.469 0 78.188 34.766 78.188 78.188-0.019532 4.9961 1.957 9.7969 5.4922 13.332 3.5312 3.5352 8.332 5.5117 13.332 5.4922 4.9766-0.007812 9.75-1.9961 13.262-5.5234 3.5117-3.5312 5.4766-8.3125 5.4609-13.289 0-43.418 34.863-78.188 78.332-78.188 4.9531-0.019531 9.6992-1.9961 13.199-5.5039 3.5-3.5078 5.4688-8.2539 5.4766-13.211 0.019531-4.9727-1.9336-9.7461-5.4375-13.277-3.5039-3.5312-8.2656-5.5234-13.238-5.543-43.469 0-78.332-34.766-78.332-78.188-0.003907-0.28906-0.011719-0.58203-0.03125-0.87109-0.20703-4.8203-2.2617-9.375-5.7422-12.715-3.4766-3.3438-8.1094-5.2148-12.934-5.2305zm0 81.812c8.8516 13.539 20.43 25.145 33.984 33.984-13.559 8.8398-25.129 20.445-33.984 33.984-8.8359-13.547-20.445-25.141-33.984-33.984 13.539-8.8398 25.148-20.441 33.984-33.984zm381.34 0.40234-0.003906 0.003906c-4.9531-0.21094-9.7891 1.5547-13.449 4.9023-3.6562 3.3516-5.8398 8.0117-6.0664 12.969 0 0-2.4375 56.316-38.891 115.83-37.035 60.465-85.105 97.449-85.105 97.449h-0.003906c-3.9297 3-6.5156 7.4297-7.1953 12.328-0.67969 4.8945 0.60156 9.8633 3.5664 13.82 3.0078 3.9648 7.4688 6.5703 12.402 7.2461 4.9336 0.67188 9.9297-0.64453 13.891-3.6602 0 0 53.344-40.621 94.41-107.66 41.648-67.992 44.422-133.7 44.422-133.7 0.20703-4.9766-1.5703-9.8281-4.9453-13.488-3.3711-3.6602-8.0625-5.832-13.035-6.0312zm146.15 47.059c-0.89453 0-1.7891 0.0625-2.6719 0.1875-0.87891 0.12109-1.75 0.30469-2.6016 0.55078-3.8945 1.125-7.3203 3.4805-9.7617 6.7188-2.4453 3.2344-3.7695 7.1758-3.7852 11.227 0 43.418-34.715 78.223-78.188 78.223-5-0.019532-9.7969 1.957-13.332 5.4922-3.5352 3.5352-5.5117 8.3359-5.4922 13.332 0.019532 4.9727 2.0156 9.7344 5.543 13.238 3.5312 3.5039 8.3086 5.4609 13.281 5.4414 43.469 0 78.188 34.766 78.188 78.188l-0.003906-0.003906c-0.019531 5 1.957 9.8008 5.4922 13.332 3.5352 3.5352 8.332 5.5117 13.332 5.4922 0.30078 0.007813 0.60547 0.003907 0.90625-0.003906 0.29297-0.019531 0.58594-0.046875 0.87891-0.078125 0.30078-0.023437 0.60156-0.054687 0.90234-0.09375 0.28906-0.046875 0.57422-0.10156 0.86328-0.16016 3.3789-0.66406 6.5078-2.2461 9.0469-4.5703 2.5391-2.3281 4.3906-5.3047 5.3477-8.6133 0.10156-0.28516 0.19531-0.57422 0.28125-0.86719 0.34375-1.4531 0.50781-2.9414 0.49609-4.4336 0-43.418 34.898-78.188 78.355-78.199 4.9727 0.015625 9.75-1.9453 13.273-5.4531 3.5273-3.5039 5.5195-8.2695 5.5312-13.242 0.019532-4.9961-1.957-9.7969-5.4883-13.332-3.5352-3.5312-8.3359-5.5078-13.332-5.4883-43.469 0-78.367-34.805-78.367-78.223h-0.003906c-0.019531-4.9492-1.9922-9.6875-5.4922-13.188-3.4961-3.4961-8.2383-5.4727-13.184-5.4922zm-0.035156 81.664c8.8516 13.539 20.469 25.145 34.02 33.984-13.559 8.8398-25.168 20.441-34.02 33.984-8.8359-13.543-20.406-25.141-33.949-33.984 13.539-8.8398 25.117-20.441 33.949-33.984zm201.34 7.9844c-5.8398 0.046875-11.766 0.80469-17.652 2.3789-37.672 10.086-60.305 49.277-50.207 86.938 10.098 37.66 49.305 60.332 86.977 50.246 37.668-10.086 60.305-49.312 50.207-86.977-8.5195-31.777-37.766-52.832-69.324-52.586zm0.49609 37.426c14.996-0.21094 28.504 9.6172 32.594 24.867 4.8477 18.074-5.5547 36.168-23.656 41.016-18.105 4.8477-36.207-5.582-41.055-23.656s5.5898-36.168 23.695-41.016c2.8359-0.75391 5.6406-1.1719 8.4258-1.207zm-824.41 85.258c2.0273 0.4375 3.0977 0.28906 6.043 1.3555 11.312 4.1016 27.922 13.191 47.277 26.148 17.441 11.676 37.191 26.562 58.227 43.98-4.7461 4.1406-9.5078 8.0977-14.32 11.828v-0.003906c-3.9258 3.0469-6.4805 7.5273-7.1055 12.457-0.625 4.9336 0.73438 9.9102 3.7734 13.836 3.0508 3.9375 7.5352 6.5039 12.477 7.1289 4.9375 0.625 9.9219-0.74219 13.855-3.7969 6.7891-5.2734 13.469-10.887 20.031-16.812 17.066 15.184 34.637 31.715 52.297 49.363 24.273 24.254 46.473 48.34 65.879 71.156-5.4922 6.0859-10.695 12.332-15.602 18.637v0.003906c-3.043 3.9297-4.4023 8.9062-3.7773 13.836 0.625 4.9336 3.1797 9.4141 7.1055 12.461 3.9102 3.0586 8.8789 4.4414 13.805 3.8438 4.9297-0.59766 9.4219-3.1289 12.488-7.0312 3.2031-4.1055 6.5625-8.2109 10.07-12.27 10.711 13.676 20.133 26.625 28.09 38.488 12.965 19.34 22.039 35.934 26.148 47.242 1.0625 2.918 0.91406 4.0625 1.3555 6.0781-2.0117-0.4375-3.0742-0.41797-5.9688-1.4688-11.312-4.1055-27.996-13.082-47.352-26.039-38.707-25.91-88.594-67.609-139.12-118.1-50.527-50.496-92.246-100.33-118.18-139.01-12.965-19.34-21.93-36.047-26.039-47.352-1.0625-2.9258-1.0273-3.9492-1.4688-5.9688zm-21.789 44.496c5.0938 9.2852 11.207 19.172 18.238 29.664 27.949 41.695 70.734 92.777 122.68 144.69 51.945 51.91 103.08 94.676 144.8 122.61 10.469 7.0078 20.32 13.078 29.59 18.164l-60.207 25.305c-69.297-45.527-148.78-84.988-232.84-115.43-34.148-12.367-68.723-23.055-103.38-32.117zm580.48 128.25c-4.9727-0.015624-9.75 1.9453-13.277 5.4492-3.5273 3.5078-5.5156 8.2695-5.5312 13.242 0 43.418-34.719 78.188-78.188 78.188h0.003907c-5-0.019531-9.8008 1.957-13.336 5.4922-3.5312 3.5312-5.5078 8.332-5.4883 13.332 0.007812 4.9766 1.9961 9.75 5.5273 13.258 3.5312 3.5117 8.3164 5.4727 13.297 5.4531 43.469 0 78.188 34.914 78.184 78.332 0.019531 4.9727 2.0117 9.7344 5.543 13.238 3.5273 3.5039 8.3047 5.4609 13.277 5.4414 4.9492-0.019532 9.6875-1.9922 13.188-5.4922 3.4961-3.4961 5.4727-8.2383 5.4883-13.184 0-43.418 34.898-78.332 78.371-78.332 4.9805 0.019531 9.7617-1.9453 13.293-5.4531 3.5312-3.5117 5.5195-8.2812 5.5312-13.262 0.007812-3.7617-1.1172-7.4414-3.2266-10.555-2.1094-3.1172-5.1055-5.5234-8.6016-6.9141-0.28125-0.11719-0.5625-0.22656-0.84375-0.33203-1.1328-0.39062-2.2969-0.67188-3.4805-0.83984-0.30469-0.035156-0.61328-0.0625-0.92188-0.078124-0.58203-0.066407-1.168-0.10156-1.7578-0.10938-43.469 0-78.367-34.766-78.371-78.188l0.003907 0.003907c-0.019531-4.9492-1.9961-9.6875-5.4922-13.188-3.5-3.4961-8.2383-5.4688-13.184-5.4883zm-0.070313 81.664c8.8594 13.559 20.52 25.137 34.094 33.984-13.578 8.8633-25.234 20.477-34.094 34.059-8.8438-13.57-20.43-25.199-33.984-34.059 13.547-8.8398 25.145-20.438 33.984-33.984zm-676.21 17.836c35.27 9.0586 70.582 19.926 105.36 32.52 72.859 26.387 142.14 59.738 203.61 97.777l-238.4 100.12c-10.762-4.2812-21.594-8.4688-32.484-12.414-37.961-13.746-76.469-25.52-114.99-35.191zm-91.625 217.79c37.426 9.2031 74.879 20.551 111.88 33.766l-153.11 64.305z"/>
</svg>
