<?xml version="1.0" encoding="UTF-8"?>
<svg width="1200pt" height="1200pt" version="1.1" viewBox="0 0 1200 1200" xmlns="http://www.w3.org/2000/svg">
 <path d="m1039.3 581.48c-0.1875-0.14062-0.32812-0.28125-0.51562-0.42188-7.0781-6.4688-16.172-10.781-25.266-12l-260.16-35.156c-17.625-2.3906-31.453-0.9375-43.594 4.4531l-178.08 79.922c-7.2188 3.2344-15.609 7.9688-21.891 15.656-0.42188 0.42188-0.75 0.89062-1.0312 1.4531-5.2969 7.0781-8.8594 16.406-8.25 29.344l14.25 301.6c1.125 24.234 20.109 42.656 37.828 46.5l290.02 62.438c5.5781 1.2188 11.25 1.7812 16.922 1.7812 17.672 0 34.828-5.7188 46.547-16.078l122.81-108.52c11.344-10.031 17.484-23.859 17.766-39.938l4.875-303.24c0.1875-11.156-4.8281-20.719-12.281-27.75zm-4.2188 330.84c-0.1875 12.938-4.875 23.484-13.828 31.406l-122.81 108.52c-12.797 11.297-33.75 15.891-53.344 11.672l-290.02-62.438c-13.125-2.8125-27.797-17.25-28.641-35.672l-14.25-301.6c-0.375-8.0625 1.0781-14.578 4.5938-20.062l315.37 42.703c17.531 2.3906 26.859 14.297 27.656 35.484l11.156 294.66c0.14062 3.1406 2.6719 5.5781 5.8125 5.5781h0.23438c3.1875-0.14062 5.7188-2.8125 5.5781-6l-11.156-294.66c-1.3594-36.281-24.188-44.719-37.688-46.547l-306.24-41.438c2.6719-1.7344 5.5781-3.375 9-4.9219l178.08-79.922c10.031-4.5 21.891-5.625 37.266-3.5625l260.16 35.156c4.1719 0.5625 8.8594 2.2031 13.266 4.7812l-135.42 81.844c-2.7656 1.6406-3.6094 5.25-1.9688 7.9688 1.0781 1.8281 3 2.8125 4.9688 2.8125 1.0312 0 2.0625-0.28125 3-0.84375l138.74-83.812c3.375 4.2656 5.5312 9.5156 5.4375 15.75l-4.875 303.24zm-316.22-96.094c6.8438 8.2031 11.109 18.797 11.109 29.859 0 1.9219-0.14062 3.8906-0.42187 5.8125-1.2656 8.9531-5.3906 16.594-11.391 21.984-6.0469 5.4844-14.016 8.6719-22.828 8.6719-1.6406 0-3.4219-0.14062-5.25-0.375-10.688-1.5-20.25-7.3594-27.188-15.609-6.8438-8.2031-11.109-18.797-11.109-29.859 0-1.9219 0.14063-3.8906 0.42188-5.8125 1.2656-8.9531 5.3906-16.594 11.391-22.031 6.0469-5.4844 14.016-8.6719 22.828-8.6719 1.6406 0 3.4219 0.14062 5.25 0.375 10.688 1.5 20.25 7.3594 27.188 15.609zm-144.47-56.344c-6.7969-8.1094-11.016-18.656-11.016-29.625 0-1.9219 0.14063-3.8438 0.42188-5.7656 1.2656-8.9062 5.3438-16.453 11.297-21.844 6-5.4375 13.875-8.5781 22.641-8.5781 1.6406 0 3.375 0.14062 5.2031 0.375 10.594 1.5 20.109 7.3125 26.953 15.469 6.7969 8.1094 11.016 18.656 11.016 29.625 0 1.9219-0.14062 3.8438-0.42187 5.7656-1.2656 8.9062-5.3438 16.453-11.297 21.844-6 5.4375-13.875 8.5781-22.641 8.5781-1.6406 0-3.375-0.14062-5.2031-0.375-10.594-1.5-20.109-7.3125-26.953-15.469zm174.14 20.203c-6.7969-8.1094-11.016-18.656-11.016-29.625 0-1.9219 0.14062-3.8438 0.42188-5.7656 1.2656-8.9062 5.3438-16.453 11.297-21.844 6-5.4375 13.875-8.5781 22.641-8.5781 1.6406 0 3.375 0.14062 5.2031 0.375 10.594 1.5 20.109 7.3125 26.953 15.469 6.7969 8.1094 11.016 18.656 11.016 29.625 0 1.9219-0.14062 3.8438-0.42188 5.7656-1.2656 8.9062-5.3438 16.453-11.297 21.844-6 5.4375-13.875 8.5781-22.641 8.5781-1.6406 0-3.375-0.14062-5.2031-0.375-10.594-1.5-20.109-7.3125-26.953-15.469zm-107.16 117.56c6.7969 8.1094 11.016 18.656 11.016 29.625 0 1.9219-0.14062 3.8438-0.42188 5.7656-1.2656 8.9062-5.3438 16.453-11.297 21.844-6 5.4375-13.875 8.5781-22.641 8.5781-1.6406 0-3.375-0.14062-5.2031-0.375-10.594-1.5-20.109-7.3125-26.953-15.469-6.7969-8.1094-11.016-18.656-11.016-29.625 0-1.9219 0.14062-3.8438 0.42188-5.7656 1.2656-8.9062 5.3438-16.453 11.297-21.844 6-5.4375 13.875-8.5781 22.641-8.5781 1.6406 0 3.375 0.14062 5.2031 0.375 10.594 1.5 20.109 7.3125 26.953 15.469zm170.53 29.859c6.8438 8.1562 11.062 18.75 11.062 29.766 0 1.9219-0.14062 3.8906-0.42188 5.8125-1.2656 8.9531-5.3438 16.547-11.344 21.938-6.0469 5.4375-13.969 8.625-22.734 8.625-1.6406 0-3.375-0.14062-5.2031-0.375-10.641-1.5-20.203-7.3125-27.094-15.562-6.8438-8.1562-11.062-18.75-11.062-29.766 0-1.9219 0.14062-3.8906 0.42188-5.8125 1.2656-8.9531 5.3438-16.547 11.344-21.938 6.0469-5.4375 13.969-8.625 22.734-8.625 1.6406 0 3.375 0.14062 5.2031 0.375 10.641 1.5 20.203 7.3125 27.094 15.562zm136.31-222.84c3.75 5.4375 6.0469 14.438 6.0469 25.688 0 10.828-2.0625 22.031-5.4375 31.406-3.4219 9.6094-8.3438 17.578-13.969 21.703-0.14063 0.14062-0.28125 0.23438-0.46875 0.32812-2.8594 1.9688-5.7656 2.9062-8.5781 2.9062-2.2031 0-4.3125-0.5625-6.2812-1.6875-0.1875-0.09375-0.32812-0.1875-0.51562-0.28125-1.8281-1.125-3.4688-2.7656-4.875-4.875-3.75-5.4375-6.0469-14.438-6.0469-25.688 0-10.828 2.0625-22.031 5.4375-31.406 3.4219-9.6094 8.3438-17.578 13.969-21.703 0.14063-0.14062 0.28125-0.23438 0.46875-0.32812 2.8594-1.9688 5.7656-2.9062 8.5781-2.9062 2.2031 0 4.3125 0.5625 6.2812 1.6875 0.1875 0.09375 0.32812 0.1875 0.51562 0.28125 1.8281 1.125 3.4688 2.7656 4.875 4.875zm-1.5 186.71c3.6562 5.2969 5.9062 14.062 5.9062 24.984 0 10.5-2.0156 21.375-5.25 30.469-3.4219 9.6094-8.3906 17.531-14.062 21.422-2.8125 1.9219-5.6719 2.8594-8.3906 2.8594-2.3906 0-4.6406-0.65625-6.7031-1.9688-1.7812-1.125-3.4219-2.7188-4.7812-4.7344-3.6562-5.2969-5.9062-14.062-5.9062-24.984 0-10.5 2.0156-21.375 5.25-30.469 3.3281-9.375 8.1562-17.156 13.641-21.141 0.14062-0.09375 0.23437-0.1875 0.375-0.28125 2.8125-1.9219 5.6719-2.8594 8.4375-2.8594 2.1562 0 4.2188 0.5625 6.1875 1.6875 0.1875 0.09375 0.32812 0.1875 0.51562 0.28125 1.7812 1.125 3.375 2.7188 4.7812 4.7344zm72.984-226.55c3.4688 5.0156 5.5781 13.312 5.5781 23.719 0 9.8906-1.875 20.203-4.9688 28.828-3.1406 8.8594-7.6875 16.172-12.891 19.969-0.14063 0.14062-0.28125 0.23438-0.46875 0.375-2.7188 1.875-5.4375 2.7188-8.1094 2.7188-2.1094 0-4.0781-0.5625-5.9531-1.5938-0.1875-0.09375-0.375-0.1875-0.51563-0.28125-1.6875-1.0312-3.1406-2.4844-4.4531-4.3125l-0.1875-0.23438c-3.4688-5.0156-5.5781-13.312-5.5781-23.719 0-9.8906 1.875-20.203 4.9688-28.828 3.2344-9.1406 7.9688-16.641 13.359-20.344 2.7188-1.875 5.4375-2.7656 8.1094-2.7656 2.2969 0 4.4531 0.65625 6.4688 1.9219 1.7812 1.125 3.3281 2.625 4.6406 4.5469zm-0.5625 174.56c3.4688 5.0625 5.625 13.406 5.625 23.859 0 9.9844-1.9219 20.344-5.0156 29.016-3.1875 8.9062-7.7344 16.266-12.984 20.109-0.14063 0.14062-0.28125 0.23438-0.46875 0.375-2.7188 1.875-5.4375 2.7656-8.1562 2.7656-2.3438 0-4.5-0.65625-6.5156-1.9219-1.7812-1.125-3.3281-2.625-4.6406-4.5469-3.4688-5.0625-5.625-13.406-5.625-23.859 0-9.9844 1.9219-20.344 5.0156-29.016 3.1875-8.9062 7.7344-16.266 12.984-20.109 0.14062-0.14062 0.28125-0.23438 0.46875-0.375 2.7188-1.875 5.4375-2.7656 8.1562-2.7656 2.1094 0 4.125 0.5625 5.9531 1.5938 0.1875 0.09375 0.32813 0.1875 0.51563 0.28125 1.7344 1.0781 3.2812 2.625 4.6406 4.5938zm-256.6-255c-4.9688 1.875-11.953 3-19.875 3-8.25 0-16.219-1.2188-22.453-3.1875-7.3594-2.2969-12.75-6-14.438-10.5-0.42188-1.125-0.65625-2.25-0.65625-3.3281 0-2.8594 1.2656-5.3906 3.6094-7.5469 1.6406-1.5 3.8906-2.7656 6.6094-3.7969 4.9688-1.875 11.953-3 19.875-3 8.25 0 16.219 1.2188 22.453 3.1875 7.3594 2.2969 12.75 6 14.438 10.5 0.42188 1.125 0.65625 2.25 0.65625 3.3281 0 2.8594-1.2656 5.3906-3.6094 7.5469-1.6406 1.5-3.8906 2.7656-6.6094 3.7969zm42.656 31.688c-4.9688 1.875-11.953 3-19.875 3-8.25 0-16.219-1.2188-22.453-3.1875-7.3594-2.2969-12.75-6-14.438-10.5-0.42188-1.125-0.60938-2.25-0.60938-3.3281 0-2.8594 1.2656-5.3906 3.6094-7.5469 1.6406-1.5 3.8906-2.7656 6.6094-3.7969 4.9688-1.875 11.953-3 19.875-3 8.25 0 16.219 1.2188 22.453 3.1875 7.3594 2.2969 12.75 6 14.438 10.5 0.42188 1.125 0.65625 2.25 0.65625 3.3281 0 2.8594-1.2656 5.3906-3.6094 7.5469-1.6406 1.5-3.8906 2.7656-6.6094 3.7969zm64.453 22.266c0.42188 1.125 0.65625 2.25 0.65625 3.375 0 2.9062-1.3125 5.4844-3.6562 7.6406-1.6875 1.5469-3.9844 2.8125-6.75 3.8906-5.1094 1.9219-12.234 3.0938-20.391 3.0938-8.4844 0-16.641-1.2656-23.062-3.2344-7.5-2.3438-13.031-6.0938-14.766-10.688-0.42188-1.125-0.65625-2.25-0.65625-3.375 0-2.9062 1.3125-5.4844 3.6562-7.6406 1.6875-1.5469 3.9844-2.8125 6.75-3.8906 5.1094-1.9219 12.234-3.0938 20.391-3.0938 8.4844 0 16.641 1.2656 23.062 3.2344 7.5 2.3438 13.031 6.0938 14.766 10.688zm-348.24-26.484 160.64-72.094 56.438-87.844c4.6875-7.2656 6.4688-13.828 6.2344-19.969l-298.22-122.26c-7.6875-3.1406-15.469-3.7031-22.781-0.84375-6.8438 2.7188-13.5 8.4375-19.5 18l-158.9 252.71c-1.7344 2.7188-5.2969 3.5156-8.0156 1.8281-2.7188-1.7344-3.5156-5.2969-1.8281-8.0156l158.9-252.71c7.4062-11.812 15.984-19.078 25.078-22.641 10.312-4.0312 21.047-3.3281 31.453 0.9375l289.78 118.78c-1.5469-3.0469-3.4688-6.0938-5.6719-9.0938l-115.69-160.18c-3.375-4.6406-7.5-8.6719-12.516-12.234-5.1562-3.6562-11.25-6.8438-18.375-9.7969l-245.86-100.88c-4.2188-1.7344-9.1406-2.6719-14.203-2.5781l77.438 140.44c1.5469 2.8125 0.51562 6.375-2.2969 7.9219-2.8125 1.5469-6.375 0.51563-7.9219-2.2969l-79.219-143.76c-5.2031 2.0625-9.7969 5.6719-12.797 11.109l-149.21 268.36c-3.0938 5.5781-5.0625 11.391-5.7188 17.391-0.60938 5.6719 0 11.438 1.9219 17.25l52.781 157.31c2.7188 8.1562 8.1094 15.844 15.094 22.266 7.2188 6.6562 16.172 11.906 25.781 15l248.34 79.969-2.625-55.078c-0.60938-12.844 2.625-22.5 8.4375-30.094 5.7188-7.4062 13.734-12.609 23.109-16.828zm107.72-294.71c6.6562 1.5 14.438 4.5469 21.891 8.8125l0.32812 0.1875c7.0312 4.0781 12.609 8.6719 16.031 12.844 1.9219 2.2969 3.2344 4.6406 3.9375 6.7969 0.98438 3.0938 0.79688 6-0.65625 8.5312-0.09375 0.1875-0.1875 0.32812-0.32812 0.51562-0.51562 0.79688-1.1719 1.5-1.9219 2.1562-3.7969 3.1406-10.5 3.6094-18.281 1.875-6.6562-1.5-14.438-4.5469-21.891-8.8125l-0.32812-0.1875c-7.0312-4.0781-12.609-8.6719-16.031-12.844-1.9219-2.2969-3.2344-4.6406-3.9375-6.7969-0.98438-3.0469-0.79688-5.9531 0.65625-8.5312 0.5625-0.98438 1.3125-1.875 2.25-2.625 3.7969-3.1406 10.5-3.6094 18.281-1.875zm-73.078-77.109c0.09375-0.1875 0.1875-0.32812 0.32812-0.51562 0.51562-0.79688 1.1719-1.5 1.9219-2.1094 3.75-3.0938 10.312-3.5625 17.953-1.875 6.4688 1.4531 14.109 4.4062 21.328 8.625 6.9844 4.0312 12.516 8.5781 15.938 12.703 1.875 2.25 3.1875 4.5469 3.8906 6.6562 0.98438 3.0469 0.79688 5.9062-0.65625 8.4375-0.5625 0.98438-1.3125 1.875-2.25 2.625-3.75 3.0938-10.312 3.5625-17.953 1.875-6.4688-1.4531-14.062-4.4062-21.328-8.625-6.9844-4.0312-12.516-8.5312-15.938-12.703-1.875-2.25-3.1875-4.5469-3.8906-6.6562-0.98438-3.0469-0.79688-5.9062 0.65625-8.4375zm-53.391 6.2344c0.5625-0.98438 1.3125-1.8281 2.25-2.625 3.75-3.0938 10.312-3.5625 17.953-1.875 6.4688 1.4531 14.062 4.4062 21.328 8.625 6.9844 4.0312 12.516 8.5312 15.938 12.703 1.875 2.25 3.1875 4.5469 3.8906 6.6562 0.98438 3.0469 0.79688 5.9062-0.65625 8.4375-0.5625 0.98438-1.3125 1.875-2.25 2.625-3.75 3.0938-10.312 3.5625-17.953 1.875-6.4688-1.4531-14.109-4.4062-21.328-8.625l-0.32812-0.1875c-6.8438-3.9844-12.281-8.4375-15.609-12.516-1.875-2.25-3.1875-4.5469-3.8906-6.6562-0.98438-3.0469-0.79688-5.9062 0.65625-8.4375zm-24.375 8.9531 0.32812 0.1875c7.0312 4.0781 12.609 8.6719 16.031 12.844 1.9219 2.2969 3.2344 4.6406 3.9375 6.7969 0.98438 3.0469 0.79688 5.9531-0.65625 8.5312-0.5625 0.98438-1.3125 1.875-2.25 2.625-3.7969 3.1406-10.5 3.6094-18.281 1.875-6.6094-1.4531-14.438-4.5469-21.844-8.8125-7.1719-4.1719-12.891-8.7656-16.359-13.031-1.9219-2.2969-3.2344-4.6406-3.9375-6.7969-0.98438-3.0469-0.79688-5.9531 0.65625-8.5312 0.5625-0.98438 1.3125-1.875 2.25-2.6719 3.7969-3.1406 10.5-3.6094 18.281-1.875 6.6562 1.5 14.438 4.5469 21.891 8.8125zm-86.438-68.156c-1.875-2.25-3.1875-4.5469-3.8906-6.6562-0.98438-3.0469-0.79688-5.9062 0.65625-8.4375 0.5625-0.98438 1.3125-1.8281 2.25-2.625 3.75-3.0938 10.312-3.5625 17.953-1.875 6.4688 1.4531 14.109 4.4062 21.328 8.625l0.32812 0.1875c6.8438 3.9844 12.281 8.4375 15.609 12.516 1.875 2.25 3.1875 4.5469 3.8906 6.6562 0.98438 3.0469 0.79688 5.9062-0.65625 8.4375-0.5625 0.98438-1.3125 1.8281-2.25 2.625-3.75 3.0938-10.312 3.5625-17.953 1.875-6.4688-1.4531-14.062-4.4062-21.328-8.625-6.9844-4.0312-12.516-8.5312-15.938-12.703zm-84.094 199.18c-1.6406 9.0469-5.2031 18.984-10.172 27.609-5.25 9.0469-11.25 15.234-16.828 17.859-2.1094 0.98438-4.2188 1.5469-6.3281 1.6406-2.3438 0.09375-4.5938-0.46875-6.6094-1.6406-2.3438-1.3594-4.3125-3.5156-5.7188-6.4688-2.8125-5.9062-3.1406-14.812-1.4062-24.422 1.6406-9.0469 5.2031-18.984 10.172-27.609l0.1875-0.32812c5.2031-8.9062 11.156-14.953 16.594-17.531 2.1094-0.98438 4.2188-1.5469 6.3281-1.6406 2.3438-0.09375 4.5938 0.46875 6.6094 1.6406 2.3438 1.3594 4.3125 3.5156 5.7188 6.4688 2.8125 5.9062 3.1406 14.812 1.4062 24.422zm13.734-100.69c5.25-9.0469 11.25-15.234 16.781-17.859 2.1094-0.98438 4.2188-1.5469 6.3281-1.6406 2.3438-0.09375 4.5938 0.46875 6.6094 1.6406 2.3438 1.3594 4.3125 3.5156 5.7188 6.4688 2.8125 5.9062 3.1406 14.812 1.4062 24.422-1.6406 9.0469-5.2031 18.938-10.172 27.609-5.25 9.0938-11.25 15.234-16.781 17.859-2.1094 0.98438-4.2188 1.5469-6.3281 1.6406-2.3438 0.09375-4.5938-0.46875-6.6094-1.5938-2.3906-1.3594-4.3125-3.5156-5.7656-6.4688-2.8125-5.9062-3.1406-14.812-1.4062-24.422 1.6406-9.0469 5.2031-18.938 10.172-27.609zm-54.094-47.391c1.5938-8.5312 4.875-17.906 9.6094-26.062 4.9688-8.5781 10.688-14.438 15.938-16.922 2.0156-0.98438 4.0781-1.5 6.0938-1.5469 2.2969-0.09375 4.4531 0.42188 6.4219 1.5469l0.42188 0.28125c2.1094 1.3125 3.8438 3.3281 5.1094 5.9531 2.6719 5.625 3 14.062 1.3125 23.156-1.5938 8.5312-4.875 17.906-9.6094 26.062-4.9688 8.5781-10.688 14.438-15.938 16.922-2.0156 0.98438-4.0781 1.5-6.0938 1.5469-2.2969 0.09375-4.4062-0.42188-6.375-1.5469-2.2969-1.3125-4.1719-3.375-5.5312-6.2344-2.6719-5.625-3-14.062-1.3125-23.156zm-47.531 82.406c1.5938-8.5312 4.875-17.906 9.6094-26.062l0.1875-0.32812c4.9219-8.4375 10.547-14.156 15.75-16.641 2.0156-0.98438 4.0781-1.5 6.0938-1.5469 2.2969-0.09375 4.4531 0.42188 6.4219 1.5469l0.42188 0.28125c2.1094 1.3125 3.8438 3.3281 5.1094 5.9531 2.6719 5.625 3 14.062 1.3125 23.156-1.5938 8.5312-4.875 17.906-9.6094 26.062l-0.1875 0.32812c-4.9219 8.4375-10.547 14.156-15.75 16.641-2.0156 0.98438-4.0781 1.5-6.0938 1.5469-2.2969 0.09375-4.4062-0.42188-6.4219-1.5938-2.2969-1.3125-4.1719-3.375-5.5312-6.2344-2.6719-5.625-3-14.062-1.3125-23.156zm-28.219 111.8c-2.0156 0.98438-4.0781 1.5-6.0938 1.5469-2.2969 0.09375-4.4062-0.42188-6.375-1.5469-2.2969-1.3125-4.1719-3.375-5.5312-6.2344-2.6719-5.625-3-14.062-1.3125-23.156 1.5469-8.5312 4.875-17.906 9.6094-26.062 4.9688-8.5781 10.688-14.438 15.938-16.922 2.0156-0.98438 4.0781-1.5 6.0938-1.5469 2.2969-0.09375 4.4531 0.42188 6.4219 1.5469l0.42188 0.28125c2.1094 1.3125 3.8438 3.3281 5.1094 5.9531 2.6719 5.625 3 14.062 1.3125 23.156-1.5938 8.5312-4.875 17.906-9.6094 26.062-4.9688 8.5781-10.688 14.438-15.938 16.922zm32.203 88.641c-2.3438 0.09375-4.5938-0.46875-6.6094-1.5938l-0.42188-0.28125c-2.1562-1.3594-3.9844-3.4219-5.2969-6.2344-2.8125-5.9062-3.1406-14.812-1.4062-24.422 1.6406-9.0469 5.2031-18.984 10.172-27.609l0.1875-0.32812c5.2031-8.9062 11.156-14.953 16.594-17.531 2.1094-0.98438 4.2188-1.5469 6.3281-1.6406 2.3438-0.09375 4.5938 0.46875 6.6094 1.5938 2.3906 1.3594 4.3594 3.5156 5.7656 6.4688 2.8125 5.9062 3.1406 14.812 1.4062 24.422-1.6406 9.0469-5.2031 18.938-10.172 27.609-5.25 9.0938-11.297 15.234-16.828 17.906-2.1094 0.98438-4.2188 1.5469-6.3281 1.6406zm169.31 56.438c-0.75 1.8281-1.5938 3.6094-2.625 5.3438-5.625 9.7031-14.672 16.828-24.797 20.531-10.172 3.7031-21.516 3.9844-31.594-0.09375-1.6875-0.70312-3.2812-1.4531-4.7812-2.3438-7.7344-4.4531-13.031-11.25-15.562-19.078-2.5312-7.7344-2.25-16.5 1.125-24.938 0.65625-1.6406 1.4531-3.3281 2.4375-4.9688l0.1875-0.32812c5.5781-9.6562 14.672-16.828 24.797-20.531 10.172-3.7031 21.516-3.9844 31.594 0.09375 1.6875 0.70312 3.2812 1.4531 4.7812 2.3438 7.7344 4.4531 13.031 11.25 15.609 19.078 2.5312 7.7344 2.25 16.5-1.125 24.938zm191.63-119.39c0.70312-1.7344 1.5469-3.5156 2.5781-5.2969 5.5781-9.6562 14.578-16.781 24.656-20.438 10.125-3.7031 21.422-3.9844 31.453 0.09375 1.6875 0.70312 3.2812 1.4531 4.7812 2.3438 7.6875 4.4531 12.984 11.203 15.516 18.984 2.4844 7.7344 2.25 16.406-1.125 24.844-0.70312 1.7812-1.5938 3.5625-2.5781 5.2969-5.5781 9.6562-14.578 16.734-24.656 20.438-10.125 3.7031-21.422 3.9844-31.453-0.09375-1.5-0.60938-3-1.3125-4.4062-2.1094l-0.375-0.1875c-7.6875-4.4531-12.984-11.203-15.516-18.984-2.4844-7.7344-2.25-16.406 1.125-24.844zm-112.69 94.922c-1.5469-0.60938-3-1.3594-4.4531-2.1562l-0.375-0.1875c-7.7344-4.4531-13.078-11.25-15.609-19.125-2.5312-7.7812-2.25-16.547 1.1719-24.984 0.75-1.8281 1.5938-3.6094 2.625-5.3438 5.625-9.7031 14.719-16.875 24.844-20.578 10.219-3.75 21.562-3.9844 31.688 0.09375 1.6875 0.70312 3.3281 1.4531 4.8281 2.3438 7.7344 4.4531 13.078 11.25 15.609 19.125 2.5312 7.7812 2.25 16.547-1.1719 24.984-0.75 1.8281-1.5938 3.6094-2.625 5.3438-5.625 9.7031-14.719 16.875-24.844 20.578-10.219 3.75-21.562 3.9844-31.688-0.09375z" fill-rule="evenodd"/>
</svg>
