<?xml version="1.0" encoding="UTF-8"?>
<svg width="1200pt" height="1200pt" version="1.1" viewBox="0 0 1200 1200" xmlns="http://www.w3.org/2000/svg">
 <path d="m951.96 407.64c21.602 54.359 34.199 113.16 34.199 174.84 0 161.52-81.84 304.32-206.16 389.16 42.359-2.2812 84.84-11.879 122.76-30.48 10.441-4.4414 22.32-4.4414 32.039 0l112.32 52.078-43.922-95.281c-6-12.602-4.4414-28.32 4.4414-38.641 47.758-57.957 72.359-127.2 72.359-200.16 0-101.16-49.922-193.44-128.04-251.52z"/>
 <path d="m151.32 1013.4 160.68-73.68c9.7188-5.1602 21.602-5.1602 31.199 0 54.359 26.039 112.32 39.48 172.68 39.48 218.04 0 395.88-177.84 395.88-396.6 0-218.04-177.84-395.88-395.88-395.88-218.76-0.11719-395.88 177.72-395.88 395.76 0 92.281 32.039 181.56 90 252.24 9.7188 11.16 11.16 26.039 5.1602 39.48zm364.56-180.84c-25.32 0-46.078-20.879-46.078-45.359 0-25.32 20.879-46.078 46.078-46.078 24.602 0 45.359 20.879 45.359 46.078 0.12109 24.48-20.758 45.359-45.359 45.359zm0-499.32c74.398 0 136.92 63.238 136.92 137.64 0 52.801-29.039 100.44-76.68 123.48-14.16 6.7188-23.039 23.039-23.039 41.641v52.801c0 20.879-17.16 37.199-37.199 37.199-20.879 0-37.199-16.32-37.199-37.199v-52.801c0-46.922 25.32-89.281 64.801-108.6 21.602-10.441 35.039-32.762 35.039-56.52 0-33.48-29.039-63.238-62.52-63.238-34.922 0-63.238 28.32-63.238 63.238 0 20.039-17.16 37.199-37.199 37.199-20.879 0-37.199-17.16-37.199-37.199-0.12891-75.957 61.672-137.64 137.51-137.64z"/>
</svg>
